<?xml version="1.0" standalone="no"?><!DOCTYPE svg PUBLIC "-//W3C//DTD SVG 1.1//EN" "http://www.w3.org/Graphics/SVG/1.1/DTD/svg11.dtd"><svg t="1732689127483" class="icon" viewBox="0 0 1024 1024" version="1.1" xmlns="http://www.w3.org/2000/svg" p-id="4741" xmlns:xlink="http://www.w3.org/1999/xlink" width="200" height="200"><path d="M742.710857 485.955048a3.193905 3.193905 0 0 0-0.664381 2.578285 3.328 3.328 0 0 0 1.517714 2.236953 2012.8 2012.8 0 0 1 77.592381 50.468571c24.216381 16.579048 42.441143 31.939048 54.674286 46.08 34.438095 39.68-60.586667 99.230476-87.893333 112.700953-10.605714 5.241905-11.824762 13.83619-6.460953 24.259047 24.868571 48.761905 64.060952 114.407619 64 169.325714-0.121905 70.095238-50.773333 127.207619-123.367619 124.525715-27.471238-1.017905-50.651429-12.757333-69.546666-35.230476a8195.370667 8195.370667 0 0 0-129.889524-150.613334c-2.602667-2.968381-5.26019-3.004952-7.984762-0.121905a2516.864 2516.864 0 0 0-103.009524 116.358096c-27.593143 33.237333-47.804952 53.61981-60.647619 61.135238-46.201905 27.001905-114.529524 7.497143-144.518095-40.289524-22.00381-34.986667-26.331429-90.63619-11.093333-127.268571a1376.816762 1376.816762 0 0 1 60.891428-128.121905 7.740952 7.740952 0 0 0-3.291428-10.544762c-37.302857-19.139048-101.424762-57.660952-107.337143-103.070476-0.24381-2.151619 0.24381-4.102095 1.462857-5.851429 6.052571-8.734476 13.287619-15.847619 21.699047-21.333333 40.472381-26.496 80.621714-53.351619 120.441905-80.579048a5.424762 5.424762 0 0 0 1.28-7.740952c-50.041905-66.620952-72.533333-164.998095-42.361905-245.211429a5.534476 5.534476 0 0 0-0.731428-5.363809c-23.570286-33.359238-30.354286-67.59619-20.358095-102.704762 24.624762-86.491429 108.312381-148.114286 199.192381-120.198095 7.722667 2.395429 22.326857 8.636952 43.824762 18.71238 1.828571 0.896 3.779048 1.219048 5.851428 0.975239 32.304762-3.291429 69.729524-17.615238 102.339048 0.182857 1.871238 1.017905 3.657143 0.896 5.363809-0.365715 59.367619-43.215238 135.192381-30.96381 184.380953 18.041905 41.691429 41.508571 70.339048 120.259048 30.963809 172.860953a278.552381 278.552381 0 0 0-7.740952 10.849523 6.64381 6.64381 0 0 0-0.853334 5.790477c27.794286 91.751619 11.885714 174.262857-47.725714 247.527619z m14.689524-325.973334c0.24381-13.592381-8.411429-33.28-15.36-43.398095-21.699048-31.451429-50.633143-49.206857-86.796191-53.272381-6.991238-0.774095-12.55619-0.444952-16.700952 0.975238-6.460952 2.236952-6.521905 4.675048-0.182857 7.314286 46.567619 19.260952 82.407619 51.321905 115.260952 89.782857 0.572952 0.670476 1.493333 0.914286 2.334477 0.609524a2.243048 2.243048 0 0 0 1.444571-2.011429z m-386.194286-69.790476a984.673524 984.673524 0 0 0 21.394286-14.384762 3.516952 3.516952 0 0 0 1.462857-3.248762 3.370667 3.370667 0 0 0-2.133333-2.785524c-43.702857-17.249524-113.980952 46.750476-108.068572 90.636191 1.017905 7.600762 3.858286 8.368762 8.533334 2.31619 21.820952-28.40381 48.091429-52.583619 78.811428-72.533333z m-93.988571 865.097143c11.702857 12.598857 25.496381 12.921905 41.386666 0.975238a137.551238 137.551238 0 0 0 20.601905-19.2c44.617143-50.95619 89.84381-101.382095 135.68-151.283809 31.207619-33.950476 47.664762-36.998095 80.761905-3.230477a1720.380952 1720.380952 0 0 1 137.99619 158.96381c10.605714 13.854476 23.875048 21.802667 39.801905 23.832381 42.343619-14.427429 57.557333-44.416 45.653334-89.965714-6.869333-26.288762-13.062095-45.208381-18.590477-56.746667a4133.699048 4133.699048 0 0 1-60.525714-131.535238 8.137143 8.137143 0 0 1 3.718095-10.544762c33.828571-17.432381 72.594286-33.767619 99.84-60.220953a8.899048 8.899048 0 0 0 0.426667-12.373333 97.26781 97.26781 0 0 0-15.177143-13.409524 791.41181 791.41181 0 0 0-127.207619-75.459047c-5.894095-2.80381-9.874286-7.253333-11.946667-13.348572a4.937143 4.937143 0 0 1 1.462858-5.363809c85.455238-74.118095 114.773333-164.449524 70.095238-272.579048-12.635429-30.555429-30.799238-55.789714-54.491429-75.702857a163.614476 163.614476 0 0 0-57.904762-35.230476c-115.017143-53.028571-244.601905 13.165714-294.765714 122.331428-39.984762 86.918095-17.188571 182.613333 58.209524 242.529524 18.95619 15.055238 24.137143 32.853333-2.011429 45.836191a2541.756952 2541.756952 0 0 0-116.784762 61.805714c-8.106667 4.571429-15.664762 7.192381-20.662857 15.603809a8.441905 8.441905 0 0 0 1.219048 10.118096c10.971429 11.37981 23.972571 20.010667 39.009524 25.904762 23.100952 9.020952 70.217143 12.434286 58.39238 50.163809-17.310476 55.28381-47.664762 108.190476-73.020952 160.121905-20.315429 41.526857-14.037333 77.531429 18.834286 108.007619z" fill="#343333" p-id="4742"></path><path d="M742.040381 116.583619c6.948571 10.118095 15.60381 29.805714 15.36 43.398095a2.243048 2.243048 0 0 1-1.444571 2.011429 2.090667 2.090667 0 0 1-2.334477-0.609524c-32.853333-38.460952-68.693333-70.521905-115.260952-89.782857-6.339048-2.639238-6.278095-5.077333 0.182857-7.314286 4.144762-1.42019 9.709714-1.749333 16.700952-0.975238 36.163048 4.065524 65.097143 21.820952 86.796191 53.272381z" fill="#AC884A" p-id="4743"></path><path d="M371.206095 90.191238c-30.72 19.949714-56.990476 44.129524-78.811428 72.533333-4.675048 6.052571-7.515429 5.284571-8.533334-2.31619-5.912381-43.885714 64.365714-107.885714 108.068572-90.636191 1.176381 0.451048 1.999238 1.52381 2.133333 2.785524a3.516952 3.516952 0 0 1-1.462857 3.248762 984.673524 984.673524 0 0 1-21.394286 14.384762z" fill="#CA9F54" p-id="4744"></path><path d="M608.798476 112.865524c0.896 1.828571 1.359238 3.474286 1.401905 4.937143 0.042667 2.517333-1.13981 3.395048-3.535238 2.620952-88.137143-28.525714-179.870476 9.081905-231.984762 79.299048-56.441905 76.068571-57.539048 150.716952-3.291429 223.939047 11.641905 15.725714 32.975238 32.670476 46.994286 53.699048l7.862857 33.340952c-17.26781 23.893333-38.991238 46.342095-65.158095 67.352381a315.782095 315.782095 0 0 1-22.00381 16.152381c-1.694476 1.097143-2.822095 2.883048-3.108571 4.888381-0.274286 2.011429 0.323048 4.047238 1.645714 5.595429a547.108571 547.108571 0 0 0 45.653334 47.542857c19.992381 18.407619 9.874286 44.251429 0.365714 68.754286-16.700952 43.093333-63.512381 104.899048-93.135238 159.939047-10.89219 20.23619-15.317333 45.025524-13.287619 74.361905-32.871619-30.47619-39.149714-66.480762-18.834286-108.007619 25.35619-51.931429 55.710476-104.838095 73.020952-160.121905 11.824762-37.729524-35.291429-41.142857-58.39238-50.163809-15.036952-5.894095-28.038095-14.524952-39.009524-25.904762a8.441905 8.441905 0 0 1-1.219048-10.118096c4.998095-8.411429 12.55619-11.032381 20.662857-15.603809a2541.756952 2541.756952 0 0 1 116.784762-61.805714c26.148571-12.982857 20.967619-30.780952 2.011429-45.836191-75.398095-59.91619-98.194286-155.611429-58.209524-242.529524 50.16381-109.165714 179.748571-175.36 294.765714-122.331428z" fill="#E4D1A8" p-id="4745"></path><path d="M608.798476 112.865524a163.614476 163.614476 0 0 1 57.904762 35.230476c-11.257905 6.296381-10.648381 17.511619 1.828572 33.645714 6.54019 8.533333 11.398095 24.545524 14.567619 48.030476 9.020952 66.80381-6.64381 115.504762-38.339048 172.8-13.104762 23.649524-9.081905 83.139048-8.228571 110.262858a13.958095 13.958095 0 0 0 5.91238 10.971428c21.699048 15.177143 33.828571 28.891429 28.64762 57.173334a200.941714 200.941714 0 0 1-14.32381 46.262857c-20.23619 44.921905-8.71619 85.394286 8.533333 129.645714 19.139048 49.005714 44.495238 97.584762 60.220953 147.504762 6.095238 19.321905 5.302857 39.92381 7.923809 60.952381-15.926857-2.029714-29.19619-9.977905-39.801905-23.832381a1720.380952 1720.380952 0 0 0-137.99619-158.96381c-33.097143-33.767619-49.554286-30.72-80.761905 3.230477-45.83619 49.901714-91.062857 100.327619-135.68 151.283809a137.551238 137.551238 0 0 1-20.601905 19.2c-15.890286 11.946667-29.68381 11.623619-41.386666-0.975238-2.029714-29.336381 2.395429-54.125714 13.287619-74.361905 29.622857-55.04 76.434286-116.845714 93.135238-159.939047 9.508571-24.502857 19.626667-50.346667-0.365714-68.754286a547.108571 547.108571 0 0 1-45.653334-47.542857 7.107048 7.107048 0 0 1-1.645714-5.595429c0.286476-2.005333 1.414095-3.785143 3.108571-4.888381a315.782095 315.782095 0 0 0 22.00381-16.152381c26.166857-21.010286 47.890286-43.459048 65.158095-67.352381 20.114286 23.04 46.951619 34.56 80.518095 34.56-10.788571 18.407619-24.502857 41.569524-14.08 61.927619 18.041905 35.352381 78.08 28.647619 81.310477-17.066666 1.505524-20.967619-9.222095-37.101714-32.182857-48.396191 37.467429-8.533333 60.385524-26.617905 68.754285-54.247619 2.273524-7.43619 1.444571-15.664762-2.499047-24.685714a5.894095 5.894095 0 0 0-4.266667-3.596191c-20.48-5.180952-37.973333 1.340952-62.902857 7.92381-19.181714 5.040762-39.905524 3.577905-62.171429-4.388572-14.342095-5.12-24.484571-7.02781-30.415238-5.729523-10.684952 2.358857-20.662857 9.142857-29.927619 20.358095-14.019048-21.028571-35.352381-37.973333-46.994286-53.699048-54.247619-73.222095-53.150476-147.870476 3.291429-223.939047 52.114286-70.217143 143.847619-107.824762 231.984762-79.299048 2.395429 0.774095 3.577905-0.103619 3.535238-2.620952-0.042667-1.462857-0.505905-3.108571-1.401905-4.937143z m7.143619 243.358476c24.911238-5.522286 40.515048-30.701714 34.852572-56.234667-5.662476-25.539048-30.445714-41.764571-55.356953-36.242285-24.911238 5.522286-40.515048 30.701714-34.852571 56.240762 5.662476 25.539048 30.445714 41.758476 55.356952 36.23619z m-177.298285 0.036571c22.442667-7.076571 34.456381-32.414476 26.837333-56.58819-3.663238-11.605333-11.459048-21.394286-21.662476-27.196952-10.209524-5.808762-22.00381-7.161905-32.774096-3.760762-22.442667 7.070476-34.456381 32.408381-26.831238 56.582095 3.657143 11.611429 11.446857 21.394286 21.656381 27.203048 10.209524 5.802667 22.00381 7.15581 32.774096 3.760761z" fill="#CA9F54" p-id="4746"></path><path d="M666.703238 148.096c23.69219 19.913143 41.856 45.147429 54.491429 75.702857 44.678095 108.129524 15.36 198.460952-70.095238 272.579048a4.937143 4.937143 0 0 0-1.462858 5.363809c2.072381 6.095238 6.052571 10.544762 11.946667 13.348572 44.739048 21.168762 87.143619 46.32381 127.207619 75.459047 5.894095 4.266667 10.953143 8.734476 15.177143 13.409524a8.899048 8.899048 0 0 1-0.426667 12.373333c-27.245714 26.453333-66.011429 42.788571-99.84 60.220953a8.137143 8.137143 0 0 0-3.718095 10.544762 4133.699048 4133.699048 0 0 0 60.525714 131.535238c5.528381 11.538286 11.721143 30.457905 18.590477 56.746667 11.904 45.549714-3.309714 75.538286-45.653334 89.965714-2.620952-21.028571-1.828571-41.630476-7.923809-60.952381-15.725714-49.92-41.081905-98.499048-60.220953-147.504762-17.249524-44.251429-28.769524-84.72381-8.533333-129.645714a200.941714 200.941714 0 0 0 14.32381-46.262857c5.180952-28.281905-6.948571-41.99619-28.64762-57.173334a13.958095 13.958095 0 0 1-5.91238-10.971428c-0.853333-27.12381-4.87619-86.613333 8.228571-110.262858 31.695238-57.295238 47.36-105.99619 38.339048-172.8-3.169524-23.484952-8.027429-39.497143-14.567619-48.030476-12.476952-16.134095-13.086476-27.349333-1.828572-33.645714z" fill="#AC884A" p-id="4747"></path><path d="M595.439325 263.748145a47.36 46.201905 77.5 1 0 20.50116 92.474758 47.36 46.201905 77.5 1 0-20.50116-92.474758Z" fill="#343333" p-id="4748"></path><path d="M411.042653 268.711688a45.897143 42.605714 72.5 1 0 27.603075 87.545767 45.897143 42.605714 72.5 1 0-27.603075-87.545767Z" fill="#343333" p-id="4749"></path><path d="M541.81181 541.726476c-9.307429 3.492571-20.985905 4.675048-35.04762 3.535238-33.566476 0-60.40381-11.52-80.518095-34.56l-7.862857-33.340952c9.264762-11.215238 19.242667-17.999238 29.927619-20.358095 5.930667-1.298286 16.073143 0.609524 30.415238 5.729523 22.265905 7.966476 42.989714 9.429333 62.171429 4.388572 24.929524-6.582857 42.422857-13.104762 62.902857-7.92381 2.029714 0.487619 3.456 1.688381 4.266667 3.596191 3.943619 9.020952 4.772571 17.249524 2.499047 24.685714-8.368762 27.629714-31.286857 45.714286-68.754285 54.247619z" fill="#FF5646" p-id="4750"></path><path d="M541.81181 541.726476c22.960762 11.294476 33.688381 27.428571 32.182857 48.396191-3.230476 45.714286-63.268571 52.419048-81.310477 17.066666-10.422857-20.358095 3.291429-43.52 14.08-61.927619 14.061714 1.13981 25.74019-0.042667 35.04762-3.535238z" fill="#343333" p-id="4751"></path></svg>