<?xml version="1.0" standalone="no"?><!DOCTYPE svg PUBLIC "-//W3C//DTD SVG 1.1//EN" "http://www.w3.org/Graphics/SVG/1.1/DTD/svg11.dtd"><svg t="1732689151343" class="icon" viewBox="0 0 1042 1024" version="1.1" xmlns="http://www.w3.org/2000/svg" p-id="4901" xmlns:xlink="http://www.w3.org/1999/xlink" width="203.515625" height="200"><path d="M586.657185 77.482667a3.413333 3.413333 0 0 0 5.43605 1.896296c39.506173-30.78321 81.414321 0.379259 116.116543 28.191605 38.052346 30.53037 72.691358 48.798025 121.299753 38.874074 50.106469-10.284247 102.842469-27.268741 158.214321-50.947161 14.835358-6.320988 27.26242-4.784988 37.293827 4.614321 10.556049 9.860741 10.872099 29.708642 8.470123 42.540247-14.285432 75.599012-28.697284 156.065185 8.912593 219.907161 1.137778 1.959506 0.518321 4.462617-1.390617 5.625679-65.548642 39.316543-127.87358 133.688889-95.889383 212.954074 0.840691 2.060642 0.821728 4.083358-0.06321 6.068148-2.989827 6.864593-7.079506 12.174222-12.262716 15.928889-38.937284 27.812346-70.415802 60.491852-107.52 87.672099a7.812741 7.812741 0 0 0-3.160494 4.93037c-22.565926 110.174815-110.048395 214.471111-198.795061 280.525432-39.063704 29.076543-86.344691 55.940741-135.142716 41.528889-37.546667-11.061728-73.070617-40.264691-103.411358-65.738271-78.443457-65.801481-135.711605-160.363457-167.063704-257.327408-6.131358-19.152593-17.509136-17.003457-29.645432-28.318025-27.26242-25.283951-55.289679-48.861235-84.069136-70.731851a14.032593 14.032593 0 0 1-4.867161-15.61284c4.721778-14.500346 6.213531-30.195358 4.487902-47.091358-6.447407-64.391901-37.12316-115.168395-92.033581-152.335802-7.540938-5.101037-9.626864-12.875852-6.257777-23.324445 16.390321-50.612148 21.282765-102.444247 14.664691-155.496296-2.654815-21.409185-5.878519-42.729877-9.671111-63.968395-6.320988-35.77679 10.24-52.021728 45.95358-37.104198 80.908642 33.817284 191.589136 81.66716 267.124938 22.186667 27.243457-21.491358 41.655309-37.799506 79.391605-35.65037 2.357728 0.12642 3.77363-0.948148 4.235062-3.223704 20.922469-98.291358 154.737778-109.289877 179.642469-6.573827z m-64.954469 13.172938c-2.117531-13.090765-15.992099-21.744198-30.97916-19.310617-7.205926 1.163062-13.69758 4.778667-18.071704 10.05037-4.367802 5.271704-6.251457 11.763358-5.233778 18.052741 2.123852 13.097086 15.992099 21.744198 30.985482 19.316938 7.193284-1.169383 13.69758-4.784988 18.065382-10.05037 4.367802-5.278025 6.257778-11.769679 5.233778-18.059062z m-7.736889 118.430025c-13.463704 57.584198-33.817284 116.875062-26.737778 176.671605 0.25284 2.149136 1.47279 3.413333 3.666173 3.792592 14.348642 2.401975 33.880494 2.085926 35.650371-16.181728 2.149136-21.579852 3.584-42.94479 4.298271-64.094815a7.237531 7.237531 0 0 1 7.205926-6.953086c83.816296-0.632099 160.553086-78.127407 98.354568-160.995556-5.012543-6.700247-12.136296-9.291852-21.364938-7.774815-4.93037-2.364049-10.157827-2.23763-15.67605 0.379259a454.78242 454.78242 0 0 0-85.839012 52.843457 6.953086 6.953086 0 0 0-2.844444 5.37284c-0.297086 5.562469 0.802765 11.207111 3.286913 16.940247zM476.507654 136.533333c-0.221235-2.048-3.52079-3.375407-7.376592-2.964543a10.872099 10.872099 0 0 0-4.816593 1.611852c-1.232593 0.83437-1.864691 1.85837-1.763555 2.844444 0.221235 2.048 3.52079 3.375407 7.376592 2.958223a10.872099 10.872099 0 0 0 4.816593-1.611852c1.232593-0.83437 1.864691-1.85837 1.763555-2.844445z m-92.564543 35.764148c8.406914 33.185185 16.118519 76.67358 33.690864 106.508642a2.275556 2.275556 0 0 0 4.108642-0.442469l34.322963-96.647901a3.697778 3.697778 0 0 0-1.833086-4.614321 236.657778 236.657778 0 0 0-59.164445-21.048889c-5.771062-1.226272-9.291852 0.25284-10.556049 4.424692-1.238914 4.254025-1.434864 8.350025-0.568889 11.820246z m530.330864 23.956544c-39.019457 16.896-78.443457 24.209383-118.265679 21.933827-6.40316-4.386765-17.275259-8.008691-32.616296-10.872099a7.585185 7.585185 0 0 0-8.470123 4.93037c-16.813827 48.165926-62.893827 84.258765-106.635062 106.887902-27.496296 14.159012-71.047901 30.151111-63.083457 70.415802 3.350123 17.129877 11.504198 42.729877 32.173827 45.511111 4.342519 0.587852 8.362667 1.580247 12.073087 2.970864l0.758518 15.107161c0.12642 2.060642 0.903901 3.830519 2.338766 5.30963 10.789926 10.998519 22.502716 16.200691 35.144691 15.612839l17.635555-4.551111c1.72563-0.455111 3.546074-0.316049 5.18321 0.379259 35.96642 14.980741 78.633086 38.115556 118.771358 27.433087 47.533827-12.641975 79.707654-55.119012 86.471111-103.537778 3.034074-21.680988 21.933827-18.583704 33.248396-29.835062 7.376593-7.332346 12.623012-16.877037 15.739259-28.634074 5.436049-20.54321 31.920988-150.060247-6.068148-144.750617-10.49284 1.47279-18.627951 3.369086-24.399013 5.688889z m-828.302222 10.30321l1.264198 60.934321-4.108642 73.829135a5.404444 5.404444 0 0 0 2.844444 5.05679c47.976296 25.72642 79.391605 105.876543 86.155062 155.812346a5.499259 5.499259 0 0 0 7.774815 4.235062l18.330864-8.406914c28.760494-12.009877 49.999012-9.102222 78.000987-9.481481 17.780938 5.30963 35.884247 6.194568 54.297284 2.654815 12.136296-1.479111 25.391407-2.022716 39.759013-1.643457 26.232099 0.632099 43.045926-3.666173 45.76395-31.857778 4.424691-45.447901-6.763457-68.582716-35.144691-107.077531a3413.168988 3413.168988 0 0 1-79.707654-112.70321c-5.05679-7.503012-11.207111-11.358815-18.457284-11.567407-62.704198-1.731951-121.173333-11.023802-175.407408-27.875556-2.022716-0.632099-4.045432-0.657383-6.068148-0.06321-4.127605 1.175704-7.920198 0.398222-11.377778-2.338765l-2.591605-0.316049c-1.769877-0.214914-2.547358 0.568889-2.338765 2.338765l1.011358 8.470124z m487.436642 275.727802a57.381926 57.381926 0 0 0-33.393778-29.696 60.567704 60.567704 0 0 0-45.466864 2.654815 60.567704 60.567704 0 0 0-30.90963 33.444346 57.381926 57.381926 0 0 0 1.763556 44.651456 57.381926 57.381926 0 0 0 33.387457 29.702321 60.567704 60.567704 0 0 0 45.466864-2.654815 60.567704 60.567704 0 0 0 30.90963-33.444345 57.381926 57.381926 0 0 0-1.757235-44.657778z m86.509037 61.496889c-43.361975 17.003457-74.587654 58.595556-51.01037 104.485926 5.138963 19.171556 18.413037 33.121975 39.822222 41.844938 96.395062 39.316543 175.849877-86.344691 79.644444-139.377778-24.481185-13.488988-47.299951-15.802469-68.456296-6.953086z m199.174321 22.369975a17.938963 17.938963 0 0 0-5.764741-13.255111 21.131062 21.131062 0 0 0-14.234864-5.638321 21.131062 21.131062 0 0 0-14.367605 5.284346 17.938963 17.938963 0 0 0-6.087111 13.116049c-0.06321 4.943012 2.016395 9.709037 5.764741 13.255111 3.748346 3.539753 8.868346 5.56879 14.234864 5.638321 5.366519 0.06321 10.530765-1.833086 14.367605-5.290666a17.938963 17.938963 0 0 0 6.087111-13.109729z m-615.158518-3.034074a9.355062 9.355062 0 0 0-10.935309-12.262716l-49.303704 11.504198a9.355062 9.355062 0 0 0-3.160494 16.877037l36.535309 24.715061a9.355062 9.355062 0 0 0 14.095803-4.614321l12.768395-36.219259z m94.814814-0.379259c-58.785185 21.554568-83.816296 91.527901-38.874074 139.124938 15.973136 19.721481 37.673086 28.406519 65.106173 26.042469 57.394568-4.99358 94.435556-54.044444 77.432099-111.059753-9.418272-31.541728-27.749136-54.297284-60.681482-60.744691-16.011062-3.160494-30.340741-0.948148-42.982716 6.637037z m94.498766 206.822716c-38.241975 15.36-72.628148 21.112099-112.387161 7.585185-2.528395-0.840691-3.053037-0.164346-1.580247 2.022716 40.372148 61.357827 88.727704 113.714568 145.066667 157.076543 18.792296 14.411852 38.305185 22.439506 58.532346 24.082963 95.762963-38.052346 152.778272-119.972346 210.172839-199.61679 7.585185-10.530765 5.24642-13.653333-7.016296-9.355061-74.714074 26.168889-157.392593-11.820247-185.520988-87.41926-4.551111-12.136296-9.336099-24.165136-14.348642-36.092839-2.357728-5.562469-5.518222-7.054222-9.481481-4.487901a5.846914 5.846914 0 0 0-2.654815 3.982222c-11.377778 64.726914-20.35358 107.64642-80.782222 142.222222z" fill="#343333" p-id="4902"></path><path d="M467.417804 99.451153a24.019753 27.496296 80.8 1 0 54.285182-8.792281 24.019753 27.496296 80.8 1 0-54.285182 8.792281Z" fill="#FF5646" p-id="4903"></path><path d="M615.03842 133.549827c2.781235 2.94558 1.536 6.46637-3.729383 10.55605a808.245728 808.245728 0 0 1-97.34321 64.979753c-2.484148-5.733136-3.584-11.377778-3.286913-16.940247a6.953086 6.953086 0 0 1 2.844444-5.37284 454.78242 454.78242 0 0 1 85.839012-52.843457c5.518222-2.616889 10.745679-2.743309 15.67605-0.379259z" fill="#FBD2BD" p-id="4904"></path><path d="M462.552714 138.02479a6.320988 7.016296 83.9 1 0 13.95314-1.49116 6.320988 7.016296 83.9 1 0-13.95314 1.49116Z" fill="#CD4C3D" p-id="4905"></path><path d="M615.03842 133.549827c9.228642-1.517037 16.352395 1.074568 21.364938 7.774815 62.198519 82.868148-14.538272 160.363457-98.354568 160.995556a7.237531 7.237531 0 0 0-7.205926 6.953086c-0.714272 21.150025-2.149136 42.514963-4.298271 64.094815-1.769877 18.267654-21.301728 18.583704-35.650371 16.181728-2.193383-0.379259-3.413333-1.643457-3.666173-3.792592-7.079506-59.796543 13.274074-119.087407 26.737778-176.671605a808.245728 808.245728 0 0 0 97.34321-64.979753c5.265383-4.089679 6.510617-7.610469 3.729383-10.55605zM417.633975 278.806123c-17.572346-29.835062-25.283951-73.323457-33.690864-106.508642-0.865975-3.470222-0.670025-7.566222 0.568889-11.820246 1.264198-4.171852 4.784988-5.650963 10.556049-4.424692a236.657778 236.657778 0 0 1 59.164445 21.048889c1.700346 0.821728 2.490469 2.81284 1.833086 4.614321l-34.322963 96.647901a2.275556 2.275556 0 0 1-4.108642 0.442469z" fill="#FF5646" p-id="4906"></path><path d="M667.692247 474.061432c8.090864-10.49284 15.865679-19.595062 23.324444-27.306667a5761.295802 5761.295802 0 0 0 200.05926-217.062716c10.49284-12.009877 18.223407-23.160099 23.198024-33.438024 5.771062-2.319802 13.906173-4.216099 24.399013-5.688889 37.989136-5.30963 11.504198 124.207407 6.068148 144.750617-3.116247 11.757037-8.362667 21.301728-15.739259 28.634074-11.314568 11.251358-30.214321 8.154074-33.248396 29.835062-6.763457 48.418765-38.937284 90.895802-86.471111 103.537778-40.138272 10.682469-82.804938-12.452346-118.771358-27.433087a8.027654 8.027654 0 0 0-5.18321-0.379259l-17.635555 4.551111z" fill="#029846" p-id="4907"></path><path d="M89.890765 196.064395c-0.967111 1.175704-0.967111 2.357728 0 3.539753 61.31358 72.438519 121.236543 145.825185 183.308642 217.694815 20.271407 23.469827 39.379753 48.102716 57.331358 73.892346-18.413037 3.539753-36.516346 2.654815-54.297284-2.654815-23.008395-23.096889-44.645136-51.32642-64.916543-84.701235a17638.728691 17638.728691 0 0 1-105.560494-175.849876c-2.357728-3.963259-8.95684-11.105975-19.784691-21.428148l-1.011358-8.470124c-0.208593-1.769877 0.568889-2.553679 2.338765-2.338765l2.591605 0.316049z" fill="#FEFEFE" p-id="4908"></path><path d="M89.890765 196.064395c3.45758 2.736988 7.250173 3.514469 11.377778 2.338765 2.022716-0.594173 4.045432-0.568889 6.068148 0.06321 54.234074 16.851753 112.70321 26.143605 175.407408 27.875556 7.250173 0.208593 13.400494 4.064395 18.457284 11.567407a3413.168988 3413.168988 0 0 0 79.707654 112.70321c28.381235 38.494815 39.569383 61.62963 35.144691 107.077531-2.718025 28.191605-19.531852 32.489877-45.76395 31.857778-14.367605-0.379259-27.622716 0.164346-39.759013 1.643457a897.194667 897.194667 0 0 0-57.331358-73.892346c-62.072099-71.86963-121.995062-145.256296-183.308642-217.694815-0.967111-1.182025-0.967111-2.364049 0-3.539753z" fill="#029846" p-id="4909"></path><path d="M914.273975 196.254025c-4.974617 10.277926-12.705185 21.428148-23.198024 33.438024a5761.295802 5761.295802 0 0 1-200.05926 217.062716c-7.458765 7.711605-15.23358 16.813827-23.324444 27.306667-12.641975 0.587852-24.354765-4.614321-35.144691-15.612839a8.097185 8.097185 0 0 1-2.338766-5.30963l-0.758518-15.107161c-14.873284-16.017383-24.797235-35.188938-29.771852-57.520987a7.123753 7.123753 0 0 1 1.074568-5.878519c3.034074-4.595358 6.656-8.135111 10.872098-10.619259 31.036049-18.078025 72.691358-37.925926 102.083951-60.997531a433.272099 433.272099 0 0 0 82.299259-84.827654c39.822222 2.275556 79.246222-5.037827 118.265679-21.933827z" fill="#FEFEFE" p-id="4910"></path><path d="M85.971753 206.557235c10.827852 10.322173 17.426963 17.464889 19.784691 21.428148 34.847605 58.823111 70.036543 117.443951 105.560494 175.849876 20.271407 33.374815 41.908148 61.604346 64.916543 84.701235-28.001975 0.379259-49.240494-2.528395-78.000987 9.481481-21.320691-54.91042-38.602272-93.133432-51.832099-114.662716-17.003457-27.685926-35.84-55.624691-46.396049-86.471111a207.341037 207.341037 0 0 0-12.768395-29.392592l-1.264198-60.934321zM796.008296 218.187852a433.272099 433.272099 0 0 1-82.299259 84.827654c-29.392593 23.071605-71.047901 42.919506-102.083951 60.997531-4.216099 2.484148-7.838025 6.023901-10.872098 10.619259-1.219951 1.807802-1.580247 3.767309-1.074568 5.878519 4.974617 22.332049 14.898568 41.503605 29.771852 57.520987a55.637333 55.637333 0 0 0-12.073087-2.970864c-20.66963-2.781235-28.823704-28.381235-32.173827-45.511111-7.964444-40.264691 35.58716-56.25679 63.083457-70.415802 43.741235-22.629136 89.821235-58.721975 106.635062-106.887902a7.585185 7.585185 0 0 1 8.470123-4.93037c15.341037 2.863407 26.213136 6.485333 32.616296 10.872099z" fill="#029846" p-id="4911"></path><path d="M198.232494 498.017975l-18.330864 8.406914a5.499259 5.499259 0 0 1-7.774815-4.235062c-6.763457-49.935802-38.178765-130.085926-86.155062-155.812346a5.404444 5.404444 0 0 1-2.844444-5.05679l4.108642-73.829135a207.341037 207.341037 0 0 1 12.768395 29.392592c10.556049 30.84642 29.392593 58.785185 46.396049 86.471111 13.229827 21.529284 30.511407 59.752296 51.832099 114.662716z" fill="#FEFEFE" p-id="4912"></path><path d="M465.398012 533.343016a58.153086 59.733333 64.7 1 0 108.007729-51.05502 58.153086 59.733333 64.7 1 0-108.007729 51.05502Z" fill="#FCC556" p-id="4913"></path><path d="M608.907062 648.267852c1.72563-42.142025 18.729086-76.970667 51.01037-104.485926 21.156346-8.849383 43.975111-6.535901 68.456296 6.953086 96.205432 53.033086 16.750617 178.694321-79.644444 139.377778-21.409185-8.722963-34.683259-22.673383-39.822222-41.844938z" fill="#FF5646" p-id="4914"></path><path d="M659.917432 543.781926c-32.281284 27.515259-49.284741 62.343901-51.01037 104.485926-23.577284-45.89037 7.648395-87.482469 51.01037-104.485926z" fill="#FEFEFE" p-id="4915"></path><path d="M818.638942 565.658267a20.22716 18.646914 0.7 1 0 40.451302 0.494231 20.22716 18.646914 0.7 1 0-40.451302-0.494231Z" fill="#FEFEFE" p-id="4916"></path><path d="M243.933235 563.124148l-12.768395 36.219259a9.355062 9.355062 0 0 1-14.095803 4.614321l-36.535309-24.715061a9.355062 9.355062 0 0 1 3.160494-16.877037l49.303704-11.504198a9.355062 9.355062 0 0 1 10.935309 12.262716z" fill="#FBD2BD" p-id="4917"></path><path d="M299.873975 701.869827c-17.066667-55.542519-4.108642-101.919605 38.874074-139.124938 12.641975-7.585185 26.971654-9.797531 42.982716-6.637037 32.932346 6.447407 51.26321 29.202963 60.681482 60.744691 17.003457 57.015309-20.037531 106.066173-77.432099 111.059753-27.433086 2.357728-49.133037-6.320988-65.106173-26.042469z" fill="#FF5646" p-id="4918"></path><path d="M338.748049 562.744889c-42.982716 37.205333-55.940741 83.58242-38.874074 139.124938-44.942222-47.597037-19.911111-117.57037 38.874074-139.124938z" fill="#FEFEFE" p-id="4919"></path><path d="M522.87842 960.335012a1555.342222 1555.342222 0 0 1-89.631605-190.767407c60.428642-34.575802 69.404444-77.495309 80.782222-142.222222a5.846914 5.846914 0 0 1 2.654815-3.982223c3.963259-2.572642 7.123753-1.074568 9.481481 4.487902 5.012543 11.921383 9.797531 23.956543 14.348642 36.092839 28.128395 75.599012 110.806914 113.588148 185.520988 87.419259 12.262716-4.298272 14.601481-1.182025 7.016296 9.355062-57.394568 79.644444-114.409877 161.564444-210.172839 199.61679z" fill="#FF5646" p-id="4920"></path><path d="M433.246815 769.567605a1555.342222 1555.342222 0 0 0 89.631605 190.767407c-20.22716-1.643457-39.740049-9.671111-58.532346-24.082963-56.338963-43.361975-104.694519-95.725037-145.066667-157.076543-1.47279-2.193383-0.948148-2.869728 1.580247-2.022716 39.759012 13.526914 74.145185 7.774815 112.387161-7.585185z" fill="#FBD2BD" p-id="4921"></path></svg>