<?xml version="1.0" standalone="no"?><!DOCTYPE svg PUBLIC "-//W3C//DTD SVG 1.1//EN" "http://www.w3.org/Graphics/SVG/1.1/DTD/svg11.dtd"><svg t="1739416254513" class="icon" viewBox="0 0 1024 1024" version="1.1" xmlns="http://www.w3.org/2000/svg" p-id="1439" xmlns:xlink="http://www.w3.org/1999/xlink" width="200" height="200"><path d="M183.5008 125.0304m109.1072 0l445.6448 0q109.1072 0 109.1072 109.1072l0 556.4416q0 109.1072-109.1072 109.1072l-445.6448 0q-109.1072 0-109.1072-109.1072l0-556.4416q0-109.1072 109.1072-109.1072Z" fill="#FFE8B2" p-id="1440"></path><path d="M653.2096 129.2288s92.16 34.4064 92.16 116.736v539.5456c0 39.3728-3.0208 109.4144-65.9968 124.16 61.952 0 172.3392 8.1408 172.3392-152.8832s-15.9744-457.9328-15.9744-514.5088S773.12 98.5088 653.2096 129.2288z" fill="#E8BC70" p-id="1441"></path><path d="M409.6 129.2288S297.9328 163.84 297.9328 245.76v539.7504c0 39.3728 3.6864 109.4144 79.616 124.16-74.7008 0-188.672 3.6864-188.672-157.2864V242.2784c0-56.5248 75.9808-143.7696 220.7232-113.0496z" fill="#FFF2D7" p-id="1442"></path><path d="M678.4 925.3376H294.912A137.1648 137.1648 0 0 1 157.9008 788.48V236.4416A137.1648 137.1648 0 0 1 294.912 99.4304h440.9856a137.1648 137.1648 0 0 1 137.0112 137.0112v384a25.6 25.6 0 0 1-51.2 0v-384a85.9136 85.9136 0 0 0-85.8112-85.8112H294.912a85.8624 85.8624 0 0 0-85.8112 85.8112V788.48a85.8624 85.8624 0 0 0 85.8112 85.6576h383.488a25.6 25.6 0 0 1 0 51.2z" fill="#434A54" p-id="1443"></path><path d="M605.0304 650.1888m-167.8848 0a167.8848 167.8848 0 1 0 335.7696 0 167.8848 167.8848 0 1 0-335.7696 0Z" fill="#FF954D" p-id="1444"></path><path d="M585.2672 625.8688m-126.6688 0a126.6688 126.6688 0 1 0 253.3376 0 126.6688 126.6688 0 1 0-253.3376 0Z" fill="#FFAB66" p-id="1445"></path><path d="M558.4896 598.7328m-82.8416 0a82.8416 82.8416 0 1 0 165.6832 0 82.8416 82.8416 0 1 0-165.6832 0Z" fill="#FFC89F" p-id="1446"></path><path d="M848.8448 848.8448l-89.9072-81.408a193.4848 193.4848 0 1 0-154.0608 76.288 194.56 194.56 0 0 0 117.76-39.936l91.648 83.0464a25.6 25.6 0 0 0 34.3552-37.9904z m-226.0992-57.4464A142.336 142.336 0 1 1 717.4144 737.28a142.4896 142.4896 0 0 1-94.6688 54.1184zM716.288 321.536H302.3872a25.6 25.6 0 0 1 0-51.2h413.9008a25.6 25.6 0 0 1 0 51.2zM386.6624 486.0416H304.128a25.6 25.6 0 0 1 0-51.2h82.5344a25.6 25.6 0 0 1 0 51.2z" fill="#434A54" p-id="1447"></path></svg>