<?xml version="1.0" standalone="no"?><!DOCTYPE svg PUBLIC "-//W3C//DTD SVG 1.1//EN" "http://www.w3.org/Graphics/SVG/1.1/DTD/svg11.dtd"><svg t="1740556815687" class="icon" viewBox="0 0 1024 1024" version="1.1" xmlns="http://www.w3.org/2000/svg" p-id="1220" xmlns:xlink="http://www.w3.org/1999/xlink" width="200" height="200"><path d="M512 515.9424m-430.8992 0a430.8992 430.8992 0 1 0 861.7984 0 430.8992 430.8992 0 1 0-861.7984 0Z" fill="#6864F8" p-id="1221"></path><path d="M512 85.0432a428.8 428.8 0 0 0-254.976 83.6096 435.2 435.2 0 0 0 634.88 550.8608A430.9504 430.9504 0 0 0 512 85.0432z" fill="#BC9BF4" p-id="1222"></path><path d="M512 962.2016a446.2592 446.2592 0 1 1 446.2592-446.2592A446.7712 446.7712 0 0 1 512 962.2016z m0-861.7984a415.5392 415.5392 0 1 0 415.5392 415.5392A416 416 0 0 0 512 100.4032z" fill="#042A76" p-id="1223"></path><path d="M512 515.9424m-341.248 0a341.248 341.248 0 1 0 682.496 0 341.248 341.248 0 1 0-682.496 0Z" fill="#D2DCFD" p-id="1224"></path><path d="M512 174.6944a341.1456 341.1456 0 0 0-298.752 176.2304v8.2432A434.8928 434.8928 0 0 0 717.1584 788.48 341.248 341.248 0 0 0 512 174.6944z" fill="#FFFFFF" p-id="1225"></path><path d="M512 515.9424m-260.7104 0a260.7104 260.7104 0 1 0 521.4208 0 260.7104 260.7104 0 1 0-521.4208 0Z" fill="#FD8F00" p-id="1226"></path><path d="M524.9024 776.3456a260.7104 260.7104 0 1 0-273.6128-260.4032c0 8.0384 0.4096 15.9232 1.1264 23.7568a436.0704 436.0704 0 0 0 272.4864 236.6464z" fill="#FDCB50" p-id="1227"></path><path d="M512 515.9424m-184.3712 0a184.3712 184.3712 0 1 0 368.7424 0 184.3712 184.3712 0 1 0-368.7424 0Z" fill="#FFFFFF" p-id="1228"></path><path d="M512 515.9424m-105.3696 0a105.3696 105.3696 0 1 0 210.7392 0 105.3696 105.3696 0 1 0-210.7392 0Z" fill="#FE7DA0" p-id="1229"></path><path d="M512 546.6624a30.72 30.72 0 0 1-21.7088-52.4288l272.2816-272.2816a30.72 30.72 0 1 1 43.4176 43.4688L533.7088 537.6a30.72 30.72 0 0 1-21.7088 9.0624z" fill="#B1D952" p-id="1230"></path><path d="M512 562.0224a46.08 46.08 0 0 1-32.5632-78.6432l272.2816-272.2816A46.08 46.08 0 1 1 816.8448 276.48l-272.2816 272.2816a46.08 46.08 0 0 1-32.5632 13.2608z m272.2816-333.6704a15.36 15.36 0 0 0-10.8544 4.5056L501.1456 505.088a15.36 15.36 0 0 0 0 21.7088 15.7184 15.7184 0 0 0 21.7088 0l272.2816-272.2304a15.36 15.36 0 0 0 0-21.7088 15.36 15.36 0 0 0-10.8544-4.5056z" fill="#042A76" p-id="1231"></path><path d="M809.5744 101.4784l-102.4 101.3248a7.168 7.168 0 0 0-2.0992 5.12l1.9456 105.7792a7.1168 7.1168 0 0 0 7.0656 7.0144l107.8784 1.5872a7.424 7.424 0 0 0 5.12-2.1504l98.7136-100.9664a7.168 7.168 0 0 0-5.12-12.1856h-90.1632a7.168 7.168 0 0 1-7.168-7.0656l-1.536-93.5936a7.168 7.168 0 0 0-12.2368-4.864z" fill="#60CEFF" p-id="1232"></path><path d="M822.1696 337.92h-0.3584l-107.8272-1.5872a22.4256 22.4256 0 0 1-22.2208-22.1184l-1.9456-105.728a22.6304 22.6304 0 0 1 6.656-16.4352l102.4-101.3248a22.528 22.528 0 0 1 38.4 15.36l1.3824 85.5552h82.3296a22.528 22.528 0 0 1 15.9744 38.4l-98.6624 100.9152a22.5792 22.5792 0 0 1-16.128 6.9632z m-99.84-32.1536l96.4608 1.3824 82.6368-84.5312h-70.912a22.6816 22.6816 0 0 1-22.528-22.1696l-1.2288-74.4448-86.1696 85.248z" fill="#042A76" p-id="1233"></path></svg>