<?xml version="1.0" standalone="no"?><!DOCTYPE svg PUBLIC "-//W3C//DTD SVG 1.1//EN" "http://www.w3.org/Graphics/SVG/1.1/DTD/svg11.dtd"><svg t="1732689166248" class="icon" viewBox="0 0 1024 1024" version="1.1" xmlns="http://www.w3.org/2000/svg" p-id="5543" xmlns:xlink="http://www.w3.org/1999/xlink" width="200" height="200"><path d="M538.129181 950.773691l0.206175 46.732886a24.809664 24.809664 0 0 1-27.008859 24.809665l-11.064698-0.962148c-17.043758-1.470711-25.469423-10.769181-25.290739-27.902282l0.481074-42.197047c0.048107-2.295409-1.099597-3.601181-3.436241-3.917315-43.159195-5.429262-74.428993 0.412349-99.444833-39.929128-7.463517-12.006228-11.566389-29.599785-12.301745-52.780671-1.030872-33.743893-2.886443-70.442953 3.711141-103.637047 1.924295-9.758926 2.267919-15.669262-3.504966-24.60349-40.616376-62.951946-89.342282-131.676779-115.595168-195.315973-70.992752-172.22443-65.56349-378.88 108.310336-487.052886 183.151678-113.945772 420.733423 6.047785 453.377718 214.146577 7.697181 48.932081 4.673289 104.984054-9.071678 168.169665-26.115436 119.443758-79.720805 210.641611-154.355973 305.550604a13.057718 13.057718 0 0 0-1.99302 12.507919c12.09557 32.919195 9.209128 67.41906 9.140402 101.644027-0.13745 44.464966-7.284832 77.040537-48.93208 94.427919-17.868456 7.491007-38.96698 6.803758-59.44698 6.597584-2.515329-0.048107-3.779866 1.18894-3.779866 3.711141z m-9.827651-346.854228v126.522416a4.075383 4.075383 0 0 0 2.233557 3.683651 4.240322 4.240322 0 0 0 4.364027-0.316134c137.10604-97.657987 248.715168-337.851275 193.460403-507.189262-23.022819-70.511678-91.197852-143.153826-170.987383-155.799194l-22.47302-6.39141c-3.477477-0.962148-5.223087 0.364242-5.223087 3.98604l-1.374497 535.503893z m-180.402684-469.871678c-33.125369 33.812617-54.814926 71.81745-65.082416 114.014497-40.272752 165.214497 52.849396 318.608322 146.727516 449.254228l27.421208 31.750873a3.504966 3.504966 0 0 0 6.185235-2.336645l-0.824698-89.204832-4.192214-566.017718a4.673289 4.673289 0 0 0-6.185235-4.398389c-41.049342 13.559409-75.734765 35.874362-104.049396 66.937986z m230.434362 648.075168c-41.784698 14.294765-104.599195 7.697181-147.895839 3.092617a3.814228 3.814228 0 0 0-2.900188 0.955276 3.676779 3.676779 0 0 0-1.223302 2.748993l-0.481074 81.507651c-0.041235 4.309047 2.089235 6.460134 6.39141 6.460134l143.566174 0.343624c4.034148 0 6.047785-2.013638 6.047785-6.047785l-0.687248-87.074362a2.13047 2.13047 0 0 0-2.817718-1.99302z" fill="#312E2E" p-id="5544"></path><path d="M557.372134 70.82094c21.991946 38.485906 34.616698 64.326443 37.867383 77.52161 10.13004 40.726336 16.21906 99.169933 18.280805 175.317047 2.680268 100.338255-15.256913 196.346846-73.054496 280.122416-1.738738 2.474094-3.477477 3.821101-5.223088 4.054766-2.563436 0.364242-4.879463-0.94153-6.941208-3.917316l1.374497-535.503893c0-3.621799 1.745611-4.948188 5.223087-3.98604l22.47302 6.39141z" fill="#FE5A41" p-id="5545"></path><path d="M462.325691 637.525906c-8.150765-5.044403-13.951141-13.655624-17.387382-25.840537-4.439624-15.628027-7.394792-25.222013-8.865504-28.795705-38.554631-90.991678-54.979866-180.608859-67.55651-277.991946 40.066577-10.24 44.121342-54.842416 38.004833-89.89208-6.391409-36.424161-31.957047-35.187114-56.491813-17.799732-28.630765 20.294443-41.530416 48.451007-38.69208 84.462819l-2.748993 1.649396a6.666309 6.666309 0 0 0-3.298792 4.879463l-4.742014 29.964027c-4.302174-34.458631-1.374497-65.886497 8.796779-94.29047 2.611544-7.381047 7.745289-20.026416 15.394362-37.936107 6.693799-15.669262 13.566282-27.558658 20.61745-35.668188 5.408644-6.322685 6.25396-11.731329 2.542819-16.219061 28.314631-31.063624 63.000054-53.378577 104.049396-66.937986a4.673289 4.673289 0 0 1 6.185235 4.398389l4.192214 566.017718z" fill="#E4A276" p-id="5546"></path><path d="M557.372134 70.82094c79.78953 12.645369 147.964564 85.287517 170.987383 155.799194 55.254765 169.337987-56.354362 409.531275-193.460403 507.189262a4.240322 4.240322 0 0 1-4.364027 0.316134 4.075383 4.075383 0 0 1-2.233557-3.683651v-126.522416c2.061745 2.975785 4.377772 4.281557 6.941208 3.917316 1.745611-0.233664 3.484349-1.580671 5.223088-4.054766 57.797584-83.77557 75.734765-179.784161 73.054496-280.122416-2.061745-76.147114-8.150765-134.590711-18.280805-175.317047-3.250685-13.195168-15.875436-39.035705-37.867383-77.52161z" fill="#D24B36" p-id="5547"></path><path d="M192.512 106.351678l-30.72 77.177986a2.405369 2.405369 0 0 1-3.092617 1.374497l-70.511678-25.840537a2.405369 2.405369 0 0 1-1.443222-3.023892l24.122416-71.81745a2.405369 2.405369 0 0 1 2.886443-1.580671l77.177987 20.48a2.405369 2.405369 0 0 1 1.580671 3.230067zM847.322201 178.581477l-22.885369-67.556511a4.879463 4.879463 0 0 1 3.092618-6.185234l66.663087-21.579598a4.879463 4.879463 0 0 1 6.047785 2.886443l25.977987 66.937987a4.879463 4.879463 0 0 1-3.092618 6.391409l-69.755704 22.198121a4.879463 4.879463 0 0 1-6.047786-3.092617z" fill="#312E2E" p-id="5548"></path><path d="M347.898846 134.047785c3.711141 4.487732 2.865826 9.896376-2.542819 16.219061-7.051168 8.10953-13.923651 19.998926-20.61745 35.668188-7.649074 17.909691-12.782819 30.55506-15.394362 37.936107-10.171275 28.403973-13.098953 59.831839-8.796779 94.29047 5.016913 129.271409 58.278658 245.347651 123.635973 355.444832 2.336644 3.937933 4.906953 7.738416 7.697182 11.408322 1.786846 2.425987 2.680268 4.508349 2.680268 6.25396-0.041235 3.023893-1.718121 5.03753-5.016913 6.047785-93.878121-130.645906-187.000268-284.039732-146.727516-449.254228 10.26749-42.197047 31.957047-80.201879 65.082416-114.014497z" fill="#FCC3B0" p-id="5549"></path><path d="M368.516295 304.897718c-20.706792-1.147705-39.764188-8.892993-57.17906-23.228993-2.838336-36.011812 10.061315-64.168376 38.69208-84.462819 24.534765-17.387383 50.100403-18.62443 56.491813 17.799732 6.11651 35.049664 2.061745 79.652081-38.004833 89.89208z" fill="#FEFEFE" p-id="5550"></path><path d="M311.337235 281.668725c17.414872 14.336 36.472268 22.081289 57.17906 23.228993 12.576644 97.383087 29.001879 187.000268 67.55651 277.991946 1.470711 3.573691 4.425879 13.167678 8.865504 28.795705 3.436242 12.184913 9.236617 20.796134 17.387382 25.840537l0.824698 89.204832a3.504966 3.504966 0 0 1-6.185235 2.336645l-27.421208-31.750873c3.298792-1.010255 4.975678-3.023893 5.016913-6.047785 0-1.745611-0.893423-3.827973-2.680268-6.25396a118.426631 118.426631 0 0 1-7.697182-11.408322c-65.357315-110.097181-118.61906-226.173423-123.635973-355.444832l4.742014-29.964027a6.666309 6.666309 0 0 1 3.298792-4.879463l2.748993-1.649396z" fill="#FE5A41" p-id="5551"></path><path d="M17.17967 308.617649m4.3295-0.037782l71.745993-0.626118q4.3295-0.037783 4.367282 4.291716l0.64531 73.945104q0.037783 4.3295-4.291717 4.367283l-71.745993 0.626117q-4.3295 0.037783-4.367282-4.291716l-0.64531-73.945104q-0.037783-4.3295 4.291717-4.367282Z" fill="#312E2E" p-id="5552"></path><path d="M922.226446 308.403234m3.023888-0.005277l73.26056-0.127864q3.023888-0.005278 3.029166 3.01861l0.138659 79.445785q0.005278 3.023888-3.01861 3.029166l-73.26056 0.127864q-3.023888 0.005278-3.029166-3.01861l-0.138659-79.445786q-0.005278-3.023888 3.01861-3.029165Z" fill="#312E2E" p-id="5553"></path><path d="M104.359386 583.862175m3.588018-0.947995l69.634125-18.398129q3.588018-0.947995 4.536013 2.640023l19.802566 74.949706q0.947995 3.588018-2.640022 4.536013l-69.634125 18.398129q-3.588018 0.947995-4.536013-2.640022l-19.802566-74.949707q-0.947995-3.588018 2.640022-4.536013Z" fill="#312E2E" p-id="5554"></path><path d="M809.935893 649.140403l21.991946-80.339329c0.549799-2.02051 1.834953-2.817718 3.848591-2.405369l77.315436 15.394362a2.680268 2.680268 0 0 1 1.443221 4.398389c-13.951141 15.119463-17.456107 54.017718-20.411275 74.566443a4.707651 4.707651 0 0 1-1.896805 3.12698 4.570201 4.570201 0 0 1-3.532457 0.790336l-78.208859-14.638389a0.687248 0.687248 0 0 1-0.549798-0.893423z" fill="#312E2E" p-id="5555"></path><path d="M578.333208 782.122953a2.13047 2.13047 0 0 1 2.817718 1.99302l0.687248 87.074363c0 4.027275-2.013638 6.047785-6.047785 6.047785l-143.566174-0.343624c-4.302174 0-6.432644-2.15796-6.39141-6.460135l0.481074-81.507651a3.676779 3.676779 0 0 1 1.223302-2.755865 3.814228 3.814228 0 0 1 2.900188-0.962148c43.296644 4.604564 106.111141 11.202148 147.895839-3.092617z" fill="#FEFEFE" p-id="5556"></path></svg>