<?xml version="1.0" standalone="no"?><!DOCTYPE svg PUBLIC "-//W3C//DTD SVG 1.1//EN" "http://www.w3.org/Graphics/SVG/1.1/DTD/svg11.dtd"><svg t="1732689122750" class="icon" viewBox="0 0 1024 1024" version="1.1" xmlns="http://www.w3.org/2000/svg" p-id="4578" xmlns:xlink="http://www.w3.org/1999/xlink" width="200" height="200"><path d="M724.416 501.105778c19.157333 5.169778 33.877333 15.388444 44.16 30.648889 16.853333 25.031111 14.435556 68.835556 41.671111 86.115555a105.827556 105.827556 0 0 0 42.595556 15.786667c34.275556 4.835556 76.017778-28.942222 107.164444-11.377778 18.915556 10.737778 16.64 25.031111 7.395556 42.808889-50.915556 97.706667-6.968889 191.715556 30.933333 284.16 25.457778 62.222222-7.182222 84.195556-65.848889 64.568889-68.764444-22.968889-163.555556-48.568889-238.222222-35.768889-28.657778 4.977778-65.493333 29.155556-93.582222 30.364444-41.102222 1.777778-16-68.551111-4.053334-88.248888 1.208889-1.991111 1.777778-4.295111 1.635556-6.613334-2.062222-41.315556-26.168889-124.871111-73.102222-136.391111-16.967111-4.167111-32.448 0.832-46.435556 15.004445-53.518222 54.094222-65.109333 117.312-34.773333 189.653333 6.257778 14.933333-20.693333 31.36-32.782222 31.644444-6.634667 0.142222-15.928889-3.505778-27.875556-10.951111-89.955556-56.248889-222.222222-14.293333-314.524444 13.937778-23.324444 7.111111-41.457778 8.817778-53.831112-13.795556-9.102222-16.711111-7.751111-30.222222 1.137778-48 27.448889-54.897778 56.177778-125.084444 60.444445-186.666666 1.564444-22.421333 0.832-38.257778-2.204445-47.502222-10.168889-31.431111-21.546667-60.871111-17.208889-94.648889a17.813333 17.813333 0 0 1 16.853334-15.573334c15.217778-0.711111 28.16 3.271111 44.302222 10.24 35.697778 15.459556 70.897778 16.312889 105.6 2.56 7.111111-2.844444 21.240889-11.875556 42.382222-27.093333 12.515556-9.002667 28.188444-18.773333 47.004445-29.297778 6.876444-3.84 8.917333-10.759111 6.115555-20.764444-9.102222-32.782222-33.066667-54.328889-60.231111-73.173334a3.555556 3.555556 0 0 0-4.977778 0.995556l-29.226666 43.946667a4.458667 4.458667 0 0 1-3.768889 1.969777 4.288 4.288 0 0 1-3.626667-2.112c-4.309333-7.153778-10.496-8.647111-18.56-4.48a2.631111 2.631111 0 0 1-3.768889-2.915555 254.641778 254.641778 0 0 1 27.235556-70.826667 9.173333 9.173333 0 0 0-2.844445-12.16c-34.176-22.848-70.656-32.519111-109.44-29.013333-18.062222 1.564444-48.497778 7.111111-62.222222-4.835556-9.386667-8.199111-11.207111-18.865778-5.475556-32 13.795556-31.381333 22.613333-57.429333 26.453334-78.151111 10.382222-55.253333-12.088889-128.64-30.72-181.191111-5.902222-16.568889-20.124444-47.644444-15.431111-64.071111 6.897778-24.32 26.026667-36.266667 50.488889-25.102222 74.808889 34.275556 182.684444 65.706667 261.688888 39.751111 30.364444-9.955556 63.715556-29.795556 95.146667-32.995556 2.609778-0.284444 4.529778 0.711111 5.76 2.986667l19.2 35.982222a6.826667 6.826667 0 0 1-1.706667 8.533334c-32.213333 25.813333-25.884444 55.608889-17.28 95.004444 13.297778 61.155556 60.586667 87.324444 72.32 145.564444a3.271111 3.271111 0 0 0 5.902223 1.208889c16.995556-24.533333 22.115556-57.528889 39.68-72.32 13.987556-11.804444 21.688889-20.195556 23.111111-25.173333 7.964444-28.017778 16.476444-55.488 25.528889-82.417778a16 16 0 0 0-2.204445-14.364444c-14.030222-19.150222-19.2-41.763556-15.502222-67.84 6.826667-48.568889 96.284444 3.84 110.364444 8.462222 79.644444 26.453333 186.026667-9.742222 266.951112-47.431111 7.495111-3.505778 16.099556-3.669333 25.813333-0.497778 21.973333 7.253333 29.582222 31.36 23.253333 52.053333-33.066667 109.226667-68.977778 189.937778-25.315555 294.897778 13.44 32.284444-8.177778 43.52-36.48 42.595556-62.151111-2.062222-97.28-9.955556-143.857778 40.746666-24.746667 26.951111-53.404444 41.031111-81.848889 59.662223a2.083556 2.083556 0 0 0-0.952889 2.126222c0.135111 0.846222 0.760889 1.543111 1.592889 1.784889z m-418.275556-175.288889l30.293334-18.488889a198.4 198.4 0 0 1 86.4-8.746667c7.921778 0.952889 9.486222-1.777778 4.693333-8.177777-36.977778-49.635556-63.715556-83.982222-64.568889-147.342223a10.88 10.88 0 0 0-11.591111-10.737777c-48.163556 2.894222-95.331556 1.28-141.511111-4.835556-21.546667-2.844444-45.724444-15.004444-63.36-17.493333-6.016-0.853333-15.288889 1.166222-27.804444 6.044444a5.276444 5.276444 0 0 0-3.555556 4.551111 62.506667 62.506667 0 0 0 2.204444 25.6c13.084444 44.231111 19.271111 87.893333 25.813334 133.404445 1.991111 14.364444 6.897778 26.88 18.417778 34.133333a1711.146667 1711.146667 0 0 0 102.257777 59.875556 5.12 5.12 0 0 0 6.4-1.351112l35.911111-46.435555z m363.306667-153.884445c-2.204444 49.137778-32.426667 88.604444-75.591111 109.084445-7.296 3.463111-6.940444 5.667556 1.066667 6.613333 35.555556 4.337778 55.751111 14.222222 88.32 31.288889 3.982222 15.125333 13.134222 30.272 27.448889 45.44 20.551111 21.831111 45.795556 14.933333 69.902222 2.488889a1385.344 1385.344 0 0 0 98.204444-55.964444c9.671111-6.016 13.632-15.260444 11.875556-27.733334-4.622222-33.706667-3.555556-66.986667 5.12-101.546666 4.977778-19.911111 13.084444-40.888889 8.177778-61.866667-2.417778-2.986667-5.873778-3.484444-10.382223-1.493333-11.52-3.057778-25.386667-3.413333-36.053333 2.56-2.033778 1.187556-4.266667 1.806222-6.684444 1.848888-36.195556 1.066667-71.182222 15.928889-107.875556 14.08-21.404444-1.066667-48-9.813333-69.262222-0.64-2.133333 0.910222-3.797333 2.659556-4.622222 4.835556-3.932444 10.766222-3.811556 21.098667 0.355555 31.004444zM462.065778 379.733333c-7.594667-13.319111-21.539556-22.293333-38.755556-24.96-17.223111-2.652444-36.316444 1.223111-53.077333 10.780445-34.894222 19.911111-50.360889 58.524444-34.545778 86.257778 7.594667 13.326222 21.546667 22.300444 38.762667 24.96 17.223111 2.659556 36.316444-1.216 53.070222-10.780445 34.901333-19.904 50.368-58.524444 34.545778-86.257778z m156.615111-9.614222c-27.491556-10.332444-51.079111-7.132444-70.755556 9.6-72.391111 61.653333 84.764444 168.96 116.337778 75.022222 13.418667-39.914667-1.777778-68.124444-45.582222-84.622222z m-152.177778 153.244445c-65.28 15.36-91.896889 57.344-79.857778 125.937777 16.711111 74.666667 141.155556 83.271111 180.266667 25.031111 54.755556-81.564444-14.008889-158.933333-100.408889-150.968888z m242.986667 98.972444c14.528-10.752 16.810667-32.284444 5.105778-48.099556s-32.967111-19.925333-47.488-9.173333c-14.520889 10.737778-16.803556 32.270222-5.098667 48.092445 11.697778 15.815111 32.96 19.925333 47.480889 9.173333z m-555.733334 180.352l-2.915555 16.64c-11.420444 34.517333-25.905778 66.659556-43.448889 96.426667-3.84 6.542222-2.296889 8.298667 4.622222 5.262222l27.093334-11.662222c42.666667-10.424889 83.960889-16.426667 123.875555-17.991111 24.177778-0.945778 48.241778-0.896 72.177778 0.142222a15.822222 15.822222 0 0 0 16.142222-11.946667c10.951111-43.377778 30.606222-82.296889 58.951111-116.764444a5.973333 5.973333 0 0 0-1.422222-8.817778c-25.528889-16.213333-38.257778-39.964444-62.08-57.315556-6.4-10.709333-15.644444-20.522667-27.733333-29.44-1.564444-3.648-4.664889-6.4-9.315556-8.248889a6.513778 6.513778 0 0 0-6.115555 0.497778c-48.967111 29.489778-102.229333 43.569778-159.786667 42.24a6.257778 6.257778 0 0 0-6.328889 7.324445c3.697778 21.902222 14.222222 41.244444 15.36 62.577777 0.526222 10.289778 0.832 20.650667 0.924444 31.075556z m483.128889-107.022222c-13.411556 8.490667-22.584889 20.864-27.52 37.12-0.718222 2.289778-0.327111 4.814222 1.066667 6.826666 27.448889 39.395556 46.129778 72.746667 56.035556 100.053334 5.077333 13.987556 5.169778 32.760889 0.284444 56.32a2.915556 2.915556 0 0 0 3.911111 3.271111c11.733333-4.764444 23.466667-11.52 34.631111-13.866667 36.835556-7.822222 72.632889-2.887111 107.377778 14.791111 22.044444 11.477333 49.827556 17.095111 83.342222 16.853334 2.702222 0 3.626667-1.301333 2.773334-3.911111-2.133333-6.613333-6.613333-13.084444-8.248889-18.986667a705.208889 705.208889 0 0 1-24.106667-184.248889c0-2.510222-1.251556-3.790222-3.768889-3.84-47.288889-1.137778-98.133333-1.208889-144.213333-12.231111-14.435556-3.413333-82.204444-31.786667-81.564445 1.848889z" fill="#343333" p-id="4579"></path><path d="M336.433778 307.328c-67.911111-56.391111-119.608889-112.142222-178.488889-169.671111-4.878222-4.785778-10.069333-8.128-15.573333-10.026667-3.932444-1.372444-4.949333-0.213333-3.057778 3.484445 39.537778 77.013333 105.884444 133.831111 166.826666 194.702222l-35.911111 46.435555a5.12 5.12 0 0 1-6.4 1.351112 1711.146667 1711.146667 0 0 1-102.257777-59.875556c-11.52-7.253333-16.426667-19.768889-18.417778-34.133333-6.542222-45.511111-12.728889-89.173333-25.813334-133.404445a62.506667 62.506667 0 0 1-2.204444-25.6 5.276444 5.276444 0 0 1 3.555556-4.551111c12.515556-4.878222 21.788444-6.897778 27.804444-6.044444 17.635556 2.488889 41.813333 14.648889 63.36 17.493333 46.179556 6.115556 93.347556 7.729778 141.511111 4.835556a10.88 10.88 0 0 1 11.591111 10.737777c0.853333 63.36 27.591111 97.706667 64.568889 147.342223 4.792889 6.4 3.228444 9.130667-4.693333 8.177777a198.4 198.4 0 0 0-86.4 8.746667zM893.589333 118.243556c-49.92 22.947556-101.020444 37.312-153.315555 43.093333-30.051556 3.320889-53.660444 6.855111-70.826667 10.595555-4.167111-9.905778-4.288-20.238222-0.355555-31.004444 0.824889-2.176 2.488889-3.925333 4.622222-4.835556 21.262222-9.173333 47.857778-0.426667 69.262222 0.64 36.693333 1.848889 71.68-13.013333 107.875556-14.08 2.417778-0.042667 4.650667-0.661333 6.684444-1.848888 10.666667-5.973333 24.533333-5.617778 36.053333-2.56z" fill="#029846" p-id="4580"></path><path d="M893.589333 118.243556c4.508444-1.991111 7.964444-1.493333 10.382223 1.493333-0.092444 5.738667-2.204444 10.147556-6.328889 13.226667-31.004444 23.182222-72.604444 38.613333-100.977778 67.2a4569.692444 4569.692444 0 0 0-113.422222 118.755555c-32.568889-17.066667-52.764444-26.951111-88.32-31.288889-8.007111-0.945778-8.362667-3.150222-1.066667-6.613333 43.164444-20.48 73.386667-59.946667 75.591111-109.084445 17.166222-3.740444 40.775111-7.274667 70.826667-10.595555 52.295111-5.781333 103.395556-20.145778 153.315555-43.093333z" fill="#FEFEFE" p-id="4581"></path><path d="M903.971556 119.736889c4.906667 20.977778-3.2 41.955556-8.177778 61.866667-8.675556 34.56-9.742222 67.84-5.12 101.546666 1.756444 12.472889-2.204444 21.717333-11.875556 27.733334a1385.344 1385.344 0 0 1-98.204444 55.964444c-24.106667 12.444444-49.351111 19.342222-69.902222-2.488889-14.314667-15.168-23.466667-30.314667-27.448889-45.44a4569.692444 4569.692444 0 0 1 113.422222-118.755555c28.373333-28.586667 69.973333-44.017778 100.977778-67.2 4.124444-3.079111 6.236444-7.488 6.328889-13.226667z" fill="#029846" p-id="4582"></path><path d="M336.433778 307.328l-30.293334 18.488889c-60.942222-60.871111-127.288889-117.688889-166.826666-194.702222-1.891556-3.697778-0.874667-4.856889 3.057778-3.484445 5.504 1.898667 10.695111 5.240889 15.573333 10.026667 58.88 57.528889 110.577778 113.28 178.488889 169.671111z" fill="#FEFEFE" p-id="4583"></path><path d="M335.679286 451.815411a57.813333 72.746667 60.3 1 0 126.380095-72.085933 57.813333 72.746667 60.3 1 0-126.380095 72.085933Z" fill="#FF5646" p-id="4584"></path><path d="M618.673778 370.119111c43.804444 16.497778 59.000889 44.707556 45.582222 84.622222-31.573333 93.937778-188.728889-13.368889-116.337778-75.022222 19.676444-16.732444 43.264-19.932444 70.755556-9.6zM386.638222 649.301333l39.182222-95.217777a14.044444 14.044444 0 0 1 11.022223-8.533334c19.818667-2.887111 29.703111-10.282667 29.653333-22.186666 86.4-7.964444 155.164444 69.404444 100.408889 150.968888-39.111111 58.24-163.555556 49.635556-180.266667-25.031111z" fill="#FF5646" p-id="4585"></path><path d="M466.496 523.363556c0.049778 11.904-9.834667 19.299556-29.653333 22.186666a14.044444 14.044444 0 0 0-11.022223 8.533334l-39.182222 95.217777c-12.039111-68.593778 14.577778-110.577778 79.857778-125.937777z" fill="#FBD2BD" p-id="4586"></path><path d="M667.100002 565.053704a35.626667 32.711111 53.5 1 0 42.383107 57.277481 35.626667 32.711111 53.5 1 0-42.383107-57.277481Z" fill="#FF5646" p-id="4587"></path><path d="M319.011556 667.221333c-8.817778 12.330667-18.033778 21.077333-27.662223 26.24-39.537778 21.240889-82.986667 34.965333-130.346666 41.173334-2.602667 0.334222-4.195556 1.208889-4.764445 2.631111-0.711111 1.756444-0.540444 3.982222 0.497778 6.684444l-2.986667 58.737778a748.103111 748.103111 0 0 0-0.924444-31.075556c-1.137778-21.333333-11.662222-40.675556-15.36-62.577777a6.257778 6.257778 0 0 1 6.328889-7.324445c57.557333 1.329778 110.819556-12.750222 159.786666-42.24a6.513778 6.513778 0 0 1 6.115556-0.497778c4.650667 1.848889 7.751111 4.600889 9.315556 8.248889z" fill="#029846" p-id="4588"></path><path d="M319.011556 667.221333c12.088889 8.917333 21.333333 18.730667 27.733333 29.44-6.727111 19.726222-18.631111 34.801778-35.697778 45.226667-72.035556 44.017778-119.111111 101.262222-171.946667 167.466667l-27.093333 11.662222c-6.919111 3.036444-8.462222 1.28-4.622222-5.262222 17.543111-29.767111 32.028444-61.909333 43.448889-96.426667 14.648889-28.060444 16.618667-53.191111 5.902222-75.377778-1.038222-2.702222-1.208889-4.928-0.497778-6.684444 0.568889-1.422222 2.161778-2.296889 4.764445-2.631111 47.36-6.208 90.808889-19.932444 130.346666-41.173334 9.628444-5.162667 18.844444-13.909333 27.662223-26.24z" fill="#FEFEFE" p-id="4589"></path><path d="M812.664889 900.181333c-63.431111-66.744889-122.026667-134.919111-175.786667-204.515555-0.64-33.635556 67.128889-5.262222 81.564445-1.848889 46.08 11.022222 96.924444 11.093333 144.213333 12.231111 2.517333 0.049778 3.768889 1.329778 3.768889 3.84a705.208889 705.208889 0 0 0 24.106667 184.248889c1.635556 5.902222 6.115556 12.373333 8.248888 18.986667 0.853333 2.609778-0.071111 3.911111-2.773333 3.911111-33.514667 0.241778-61.297778-5.376-83.342222-16.853334z" fill="#029846" p-id="4590"></path><path d="M636.878222 695.665778c53.76 69.596444 112.355556 137.770667 175.786667 204.515555-34.744889-17.678222-70.542222-22.613333-107.377778-14.791111-11.164444 2.346667-22.897778 9.102222-34.631111 13.866667a2.915556 2.915556 0 0 1-3.911111-3.271111c4.885333-23.559111 4.792889-42.332444-0.284445-56.32-9.905778-27.306667-28.586667-60.657778-56.035555-100.053334a7.857778 7.857778 0 0 1-1.066667-6.826666c4.935111-16.256 14.108444-28.629333 27.52-37.12z" fill="#FEFEFE" p-id="4591"></path><path d="M346.744889 696.661333c23.822222 17.351111 36.551111 41.102222 62.08 57.315556a5.973333 5.973333 0 0 1 1.422222 8.817778c-28.344889 34.467556-48 73.386667-58.951111 116.764444a15.822222 15.822222 0 0 1-16.142222 11.946667 872.32 872.32 0 0 0-72.177778-0.142222c-39.914667 1.564444-81.208889 7.566222-123.875556 17.991111 52.835556-66.204444 99.911111-123.448889 171.946667-167.466667 17.066667-10.424889 28.970667-25.500444 35.697778-45.226667z" fill="#029846" p-id="4592"></path><path d="M156.736 743.950222c10.716444 22.186667 8.746667 47.317333-5.902222 75.377778l2.915555-16.64 2.986667-58.737778z" fill="#CBCCCE" p-id="4593"></path></svg>