<?xml version="1.0" standalone="no"?><!DOCTYPE svg PUBLIC "-//W3C//DTD SVG 1.1//EN" "http://www.w3.org/Graphics/SVG/1.1/DTD/svg11.dtd"><svg t="1732689161335" class="icon" viewBox="0 0 1024 1024" version="1.1" xmlns="http://www.w3.org/2000/svg" p-id="5385" xmlns:xlink="http://www.w3.org/1999/xlink" width="200" height="200"><path d="M593.026327 979.99903l-6.330182-60.695272a5.492364 5.492364 0 0 0-5.523393-4.902788l-138.953697 1.241212a2.916848 2.916848 0 0 0-2.916849 3.04097l1.365333 37.360484c-6.578424 19.176727-18.556121 49.772606-33.016242 59.640243-9.991758 6.888727-26.561939 4.096-38.974061 3.165091-106.210521-8.235442-207.822352-31.278545-304.841697-69.135515-28.920242-11.29503-56.102788-35.622788-34.071272-68.204607a24733.385697 24733.385697 0 0 1 197.911272-288.83006c2.147297-3.10303 1.694255-5.771636-1.365333-8.005818l-32.768-23.583031a9.836606 9.836606 0 0 1-2.482424-13.405091l109.102545-167.253333a2.358303 2.358303 0 0 0-0.992969-3.413333c-37.546667-16.942545-40.401455-41.890909-17.811394-76.83103a33366.593164 33366.593164 0 0 1 191.705212-293.546667c1.154327-1.781139 2.749285-2.978909 4.778666-3.599515 17.625212-5.275152 41.084121-4.964848 53.248 11.419151a7283.078982 7283.078982 0 0 1 142.30497 198.780121 13.498182 13.498182 0 0 1-1.923879 17.563152l-20.914424 19.48703c-2.978909 2.767903-3.351273 5.833697-1.117091 9.18497l181.27903 272.384c1.613576 2.438982 1.092267 4.3008-1.551515 5.585454-11.009552 5.374448-17.650036 14.149818-19.921454 26.313697a10.767515 10.767515 0 0 1-11.419152 8.688485l-21.410909-1.613575a2.606545 2.606545 0 0 0-2.172121 4.344242c16.340558 18.698861 29.044364 34.853236 38.105212 48.469333a18978.23263 18978.23263 0 0 0 177.679515 261.523394c25.56897 36.926061-15.018667 57.406061-46.607515 68.452849-105.999515 36.988121-211.378424 58.479709-316.136727 64.480969-6.206061 0.328921-11.108848-3.022352-14.708364-10.053818-2.978909-5.796461-9.495273-15.142788-19.549091-28.051394zM499.625115 78.010182c-56.723394 83.446691-109.580412 164.355103-158.564848 242.71903-3.227152 5.213091-2.153503 7.900315 3.227151 8.067879a5.945406 5.945406 0 0 0 2.978909-0.682667l71.183515-38.849939c13.609891-5.380655 45.589721-19.28223 95.945697-41.704727 6.988024-3.10303 10.4448-7.906521 10.364122-14.398061 0-2.321067 1.117091-3.189915 3.351272-2.606545 21.783273 5.523394 46.669576-12.908606 64.418909-22.590061 3.847758-2.110061 4.486982-4.94623 1.923879-8.502303-19.238788-26.977745-36.907442-52.25503-52.999757-75.838061-8.651248-12.623127-22.590061-27.827976-41.828849-45.614545z m-95.138909 283.554909a1.985939 1.985939 0 0 0 0 3.661576l329.479758 135.043878a1.985939 1.985939 0 0 0 2.420363-2.916848l-143.297939-215.164121a1.985939 1.985939 0 0 0-2.420364-0.682667l-186.181818 80.058182z m-109.412848 157.447757c3.140267 2.234182 5.275152 3.369891 6.392242 3.413334 52.912873 1.073648 105.788509 0.496485 158.626909-1.737697 32.147394-1.365333 58.274909-7.571394 86.202182-19.42497a4.033939 4.033939 0 0 0 0.372364-7.19903 1093.563733 1093.563733 0 0 0-163.281455-72.362667l-20.107636-11.108848a5.08897 5.08897 0 0 0-6.516364 1.365333l-72.300606 94.145939a8.63263 8.63263 0 0 0-1.365333 8.440243c1.19777 3.51263 5.188267 5.002085 11.977697 4.468363z m302.855757 20.728243c-90.980848 51.262061-179.16897 43.318303-278.59006 32.457697a4.623515 4.623515 0 0 0-4.344243 1.985939l-102.524121 146.276849a16717.284073 16717.284073 0 0 0-87.939879 126.913939c-6.125382 8.893285-10.513067 16.446061-13.156848 22.652121-4.307006 9.966933-2.010764 11.853576 6.888727 5.647516l32.643879-22.590061c18.618182-7.571394 38.849939-18.556121 54.054788-25.382788 69.011394-31.030303 137.855224-62.395733 206.537697-94.083879a1115.868315 1115.868315 0 0 1 79.127272-32.892121 17.37697 17.37697 0 0 1 13.963637 0.806788c11.996315 6.206061 24.9856 12.412121 38.97406 18.618182 23.707152 10.550303 32.954182-3.661576 55.854546-7.385212 22.627297-3.642958 45.614545-6.454303 68.949333-8.440243l84.774788-9.867636a4.902788 4.902788 0 0 0 3.475394-7.571394l-110.157576-163.467636a11.791515 11.791515 0 0 0-15.949576-3.475394l-32.581818 19.797333z m186.616243 288.768l114.005333 46.855757c8.3968 3.431952 10.072436 1.365333 5.026909-6.20606l-99.483152-149.504c-28.839564 13.069964-51.553745 20.995103-68.142545 23.769212-28.299636 4.797285-56.270352 8.334739-83.905939 10.612364-8.899491 0.744727-9.352533 3.121648-1.365334 7.136969l133.864728 67.335758z m-75.71394 119.83903l128.403394-25.444848c9.59457-1.905261 9.780752-4.449745 0.558546-7.633455-45.515248-15.726158-91.663515-35.337309-138.457213-58.833454a1814.192873 1814.192873 0 0 0-190.029575-86.388364c-18.307879-7.074909-53.310061 12.412121-63.177697 17.190788-89.429333 43.380364-182.147879 82.354424-269.963637 128.465454-3.847758 2.066618-3.6864 3.723636 0.496485 4.964849a1019.692994 1019.692994 0 0 0 189.533091 37.732848 5.554424 5.554424 0 0 0 4.139443-1.328097 5.430303 5.430303 0 0 0 1.880436-3.8912l4.964848-97.807515a9.805576 9.805576 0 0 1 10.798546-9.309091 1510.623418 1510.623418 0 0 0 228.258909 5.523394c6.888727-0.372364 14.956606-3.227152 22.093576-3.040969a7.19903 7.19903 0 0 1 6.950788 6.578424l8.005818 95.076848c0.148945 1.743903 1.011588 3.351273 2.376921 4.431128 1.365333 1.079855 3.10303 1.545309 4.822109 1.278448l48.345212-7.571394z" fill="#312E2E" p-id="5386"></path><path d="M418.449842 289.264485c25.854448-55.94143 48.531394-115.33343 68.018425-178.176 2.234182-7.19903 6.615661-18.2272 13.156848-33.078303 19.238788 17.78657 33.1776 32.991418 41.828849 45.614545 16.092315 23.58303 33.76097 48.860315 52.999757 75.838061 2.563103 3.556073 1.923879 6.392242-1.923879 8.502303-17.749333 9.681455-42.635636 28.113455-64.418909 22.590061-2.234182-0.58337-3.351273 0.285479-3.351272 2.606545 0.080679 6.491539-3.376097 11.29503-10.364122 14.398061-50.355976 22.422497-82.335806 36.324073-95.945697 41.704727z" fill="#02BD69" p-id="5387"></path><path d="M499.625115 78.010182c-6.541188 14.851103-10.922667 25.879273-13.156848 33.078303-19.48703 62.84257-42.163976 122.23457-68.018425 178.176l-71.183515 38.849939a5.945406 5.945406 0 0 1-2.978909 0.682667c-5.380655-0.167564-6.454303-2.854788-3.227151-8.067879 48.984436-78.363927 101.841455-159.272339 158.564848-242.71903zM404.486206 361.565091l186.181818-80.058182a1.985939 1.985939 0 0 1 2.420364 0.682667l143.297939 215.164121a1.985939 1.985939 0 0 1-2.420363 2.916848l-329.479758-135.043878a1.985939 1.985939 0 0 1 0-3.661576zM383.3856 421.701818c-26.357139 33.301721-53.272824 64.394085-80.740848 93.277091-0.99297 1.030206-3.518836 2.376921-7.571394 4.033939-6.78943 0.533721-10.779927-0.955733-11.977697-4.468363a8.63263 8.63263 0 0 1 1.365333-8.440243l72.300606-94.145939a5.08897 5.08897 0 0 1 6.516364-1.365333l20.107636 11.108848z" fill="#FEFEFE" p-id="5388"></path><path d="M383.3856 421.701818a1093.563733 1093.563733 0 0 1 163.281455 72.362667 4.033939 4.033939 0 0 1-0.372364 7.19903c-27.927273 11.853576-54.054788 18.059636-86.202182 19.42497-52.8384 2.234182-105.714036 2.811345-158.626909 1.737697-1.117091-0.043442-3.251976-1.179152-6.392242-3.413334 4.052558-1.657018 6.578424-3.003733 7.571394-4.033939 27.468024-28.883006 54.383709-59.97537 80.740848-93.277091z" fill="#FE5A41" p-id="5389"></path><path d="M668.367903 704.325818c-19.611152-62.619152-46.421333-109.226667-70.438788-164.584727l32.581818-19.797333a11.791515 11.791515 0 0 1 15.949576 3.475394l110.157576 163.467636a4.902788 4.902788 0 0 1-3.475394 7.571394l-84.774788 9.867636z" fill="#0E8A4D" p-id="5390"></path><path d="M597.929115 539.741091c24.017455 55.358061 50.827636 101.965576 70.438788 164.584727-23.334788 1.985939-46.322036 4.797285-68.949333 8.440243-22.900364 3.723636-32.147394 17.935515-55.854546 7.385212-13.988461-6.206061-26.977745-12.412121-38.97406-18.618182a17.37697 17.37697 0 0 0-13.963637-0.806788 1115.868315 1115.868315 0 0 0-79.127272 32.892121 23214.359273 23214.359273 0 0 1-206.537697 94.083879c-15.204848 6.826667-35.436606 17.811394-54.054788 25.382788 4.629721-24.824242 12.101818-45.180121 22.403878-61.067636 17.910691-27.67903 30.968242-51.535127 39.160243-71.555879l102.524121-146.276849a4.623515 4.623515 0 0 1 4.344243-1.985939c99.421091 10.860606 187.609212 18.804364 278.59006-32.457697z" fill="#02BD69" p-id="5391"></path><path d="M804.094448 719.654788l-19.54909 108.854303-133.864728-67.335758c-7.9872-4.015321-7.534158-6.392242 1.365334-7.136969 27.635588-2.277624 55.606303-5.815079 83.905939-10.612364 16.5888-2.774109 39.302982-10.699248 68.142545-23.769212zM212.470691 720.461576c-8.192 20.020752-21.249552 43.876848-39.160243 71.555879-10.302061 15.887515-17.774158 36.243394-22.403878 61.067636l-32.643879 22.590061c-8.899491 6.206061-11.195733 4.319418-6.888727-5.647516 2.643782-6.206061 7.031467-13.758836 13.156848-22.652121 28.460994-41.499927 57.778424-83.806642 87.939879-126.913939z" fill="#FEFEFE" p-id="5392"></path><path d="M804.094448 719.654788l99.483152 149.504c5.045527 7.571394 3.369891 9.638012-5.026909 6.20606l-114.005333-46.855757 19.54909-108.854303z" fill="#C4C4C4" p-id="5393"></path><path d="M699.336145 856.436364l9.495273 91.911757-48.345212 7.571394a6.237091 6.237091 0 0 1-4.822109-1.284654 6.361212 6.361212 0 0 1-2.376921-4.431128l-8.005818-95.076848a7.19903 7.19903 0 0 0-6.950788-6.578424c-7.13697-0.186182-15.204848 2.668606-22.093576 3.040969a1510.623418 1510.623418 0 0 1-228.258909-5.523394 9.805576 9.805576 0 0 0-10.798546 9.309091l-4.964848 97.807515a5.430303 5.430303 0 0 1-1.880436 3.8912 5.554424 5.554424 0 0 1-4.139443 1.321891 1019.692994 1019.692994 0 0 1-189.533091-37.732848c-4.182885-1.241212-4.344242-2.892024-0.496485-4.964849 87.815758-46.11103 180.534303-85.085091 269.963637-128.465454 9.867636-4.778667 44.869818-24.265697 63.177697-17.190788a1814.192873 1814.192873 0 0 1 190.029575 86.388364z" fill="#EBC987" p-id="5394"></path><path d="M699.336145 856.436364c46.793697 23.496145 92.941964 43.107297 138.457213 58.833454 9.222206 3.183709 9.036024 5.728194-0.558546 7.633455l-128.403394 25.444848-9.495273-91.911757zM593.026327 979.99903a470.45663 470.45663 0 0 1-97.497212 3.413334c-19.946279-1.365333-38.229333-10.488242-54.861576-27.368728l-1.365333-37.360484a2.916848 2.916848 0 0 1 2.916849-3.04097l138.953697-1.241212a5.492364 5.492364 0 0 1 5.523393 4.902788l6.330182 60.695272z" fill="#CCAB72" p-id="5395"></path></svg>