<?xml version="1.0" standalone="no"?><!DOCTYPE svg PUBLIC "-//W3C//DTD SVG 1.1//EN" "http://www.w3.org/Graphics/SVG/1.1/DTD/svg11.dtd"><svg t="1732689157481" class="icon" viewBox="0 0 1024 1024" version="1.1" xmlns="http://www.w3.org/2000/svg" p-id="5223" xmlns:xlink="http://www.w3.org/1999/xlink" width="200" height="200"><path d="M338.628335 289.739636c-47.883636-10.007273-60.567273-54.225455-61.323637-97.454545-1.338182-69.992727-4.712727-142.952727 69.061818-178.501818 63.069091-30.429091 140.218182-8.029091 185.949091 43.287272 7.796364 8.727273 12.840727 18.112 15.127273 28.16 0.686545 2.944 3.316364 5.026909 6.341818 5.003637 65.629091-0.546909 131.706182-0.930909 198.225455-1.163637 37.643636-0.116364 73.949091 17.978182 79.534545 59.694546 5.701818 43.013818 5.876364 76.427636 0.523637 100.247273-6.923636 30.545455-26.065455 38.923636-53.992728 45.498181a5.090909 5.090909 0 0 0-3.956363 4.945455c-1.396364 165.12-2.519273 330.123636-3.374546 495.010909-0.349091 76.974545-53.934545 150.865455-116.363636 188.8-38.359273 23.272727-81.454545 35.002182-129.28 35.2-56.279273 0.192-112.541091 0.674909-168.785455 1.454546-44.875636 0.616727-75.613091-1.902545-92.218182-7.563637-70.690909-24.145455-99.432727-108.8-68.421818-177.28 8.261818-18.152727 28.8-41.250909 46.021818-59.694545 34.990545-37.434182 63.243636-69.701818 84.77091-96.814546 5.469091-6.865455 7.970909-18.443636 8.261818-28.276363a22831.069091 22831.069091 0 0 0 6.749091-357.003637c0-1.978182-0.948364-3.165091-2.850909-3.549091z m384.814545-54.865454l48.814545-0.465455a3.985455 3.985455 0 0 0 3.898182-3.549091c1.92-19.549091 6.225455-68.770909-8.378182-83.374545a6.749091 6.749091 0 0 0-4.770909-1.978182l-40.494545-0.058182-317.789091 2.385455a4.392727 4.392727 0 0 1-4.363636-3.607273c-2.443636-13.323636-5.294545-48.581818 15.650909-49.687273 19.863273-1.012364 39.703273-1.844364 59.52-2.501818a2.542545 2.542545 0 0 0 2.199272-1.501091 2.402909 2.402909 0 0 0-0.395636-2.571636c-29.963636-34.618182-77.207273-41.425455-114.618182-16.174546-32.523636 21.992727-31.127273 51.258182-31.010909 92.392728 0.040727 17.256727 0.64 34.478545 1.803637 51.665454 1.28 19.723636 20.887273 18.967273 37.410909 19.083637 117.102545 0.773818 234.612364 0.756364 352.523636-0.058182z m-312.96 58.181818c-3.101091-0.738909-5.952-0.564364-8.552727 0.523636-1.861818 0.814545-2.769455 2.228364-2.734546 4.247273l0.64 32.174546c0 1.978182 0.954182 3.2 2.850909 3.665454 2.676364 0.657455 5.376 0.232727 8.087273-1.28l300.974546-0.756364c3.607273 0 5.352727-1.786182 5.236363-5.352727l-0.698182-27.461818a5.381818 5.381818 0 0 0-5.294545-5.236364c-97.239273-2.210909-194.112-2.909091-290.618182-2.094545-3.607273 0-6.900364 0.523636-9.890909 1.570909z m38.109091 104.145455a7.912727 7.912727 0 0 0-6.690909-11.927273l-41.309091-0.756364a7.912727 7.912727 0 0 0-8.029091 7.912727l-0.116364 40.785455a7.912727 7.912727 0 0 0 10.007273 7.68l21.294546-5.934545c1.978182-0.546909 3.671273-1.838545 4.712727-3.607273l20.130909-34.152727z m-3.781818 345.6c-21.410909-22.632727-65.221818-33.570909-88.494546-8.087273a3987.258182 3987.258182 0 0 1-61.963636 66.094545c-36.421818 37.876364-74.007273 78.545455-45.44 130.676364-1.396364 1.472 0.314182 4.631273 5.12 9.483636 19.723636 23.098182 45.207273 24.378182 73.250909 24.378182 57.757091-0.040727 115.514182 0.093091 173.265455 0.407273 55.621818 0.349091 91.694545-3.898182 133.410909-33.338182 42.513455-29.946182 68.945455-71.604364 79.301818-124.974545 0.622545-3.298909-0.733091-5.026909-4.072727-5.178182-29.789091-1.361455-58.141091-13.323636-85.061819-35.898182-30.138182-30.370909-40.238545-68.037818-30.312727-112.989091 6.946909-31.616 25.216-56.418909 54.807273-74.414545 19.746909-9.582545 40.884364-15.825455 63.418182-18.734546a4.392727 4.392727 0 0 0 3.781818-4.363636l0.058182-168.610909a1.338182 1.338182 0 0 0-1.338182-1.338182l-48.930909-0.174546c-53.678545-0.546909-106.821818-0.837818-159.418182-0.872727-10.821818 0-41.076364-1.803636-44.276364 14.545455a4.392727 4.392727 0 0 0 2.210909 4.654545 149.050182 149.050182 0 0 1 29.847273 21.643636c32.814545 30.72 6.109091 77.323636-23.970909 96.581819a4.090182 4.090182 0 0 0-1.902545 3.566545c0.034909 1.454545 0.826182 2.786909 2.07709 3.531636 57.658182 33.687273 42.996364 84.770909-7.156363 113.163637a2.56 2.56 0 0 0-0.349091 4.189091c23.563636 19.490909 40.029091 29.323636 34.967273 64.872727-4.340364 30.603636-21.952 40.994909-52.829091 31.185455z m-12.567273-245.76a160.535273 160.535273 0 0 0-37.236364-3.549091c-2.402909 0.034909-3.607273 1.239273-3.607272 3.607272l-0.290909 51.258182c0 1.838545 1.070545 3.508364 2.734545 4.247273 15.127273 6.749091 31.883636-5.294545 43.345455-15.301818 11.287273-9.832727 12.509091-36.421818-4.945455-40.261818z m-43.636364 116.421818l-4.305454 45.789091a12.625455 12.625455 0 0 0 11.403636 13.730909l0.64 0.058182c23.720727 2.234182 44.421818-11.485091 46.254546-30.661819l0.116363-1.396363c1.809455-19.188364-15.953455-36.561455-39.68-38.807273l-0.64-0.116364a12.625455 12.625455 0 0 0-13.789091 11.403637z m325.178182 127.301818l1.861818-118.458182a4.247273 4.247273 0 0 0-4.189091-4.305454h-1.454545a64.104727 64.104727 0 0 0-45.300364 17.675636 62.341818 62.341818 0 0 0-19.339636 44.113454v1.396364a62.347636 62.347636 0 0 0 17.949091 44.677818 64.104727 64.104727 0 0 0 44.712727 19.083637h1.454546a4.247273 4.247273 0 0 0 4.305454-4.189091z" fill="#312E2E" p-id="5224"></path><path d="M722.511971 145.448727l0.930909 89.425455c-117.911273 0.814545-235.421091 0.832-352.523636 0.058182-16.523636-0.116364-36.130909 0.64-37.410909-19.083637-1.163636-17.186909-1.762909-34.408727-1.803637-51.665454-0.116364-41.134545-1.512727-70.4 31.010909-92.392728 37.410909-25.250909 84.654545-18.443636 114.618182 16.174546a2.402909 2.402909 0 0 1 0.395636 2.571636 2.542545 2.542545 0 0 1-2.199272 1.501091c-19.816727 0.657455-39.656727 1.489455-59.52 2.501818-20.945455 1.105455-18.094545 36.363636-15.650909 49.687273 0.372364 2.094545 2.210909 3.613091 4.363636 3.607273l317.789091-2.385455z" fill="#FEFEFE" p-id="5225"></path><path d="M723.44288 234.874182l-0.930909-89.425455 40.494545 0.058182c1.792 0 3.508364 0.709818 4.770909 1.978182 14.603636 14.603636 10.298182 63.825455 8.378182 83.374545a3.985455 3.985455 0 0 1-3.898182 3.549091l-48.814545 0.465455z" fill="#C4C4C4" p-id="5226"></path><path d="M410.773789 332.386909l-0.290909-39.330909c2.990545-1.047273 6.283636-1.570909 9.890909-1.570909 96.506182-0.814545 193.378909-0.116364 290.618182 2.094545 2.903273 0.058182 5.236364 2.368 5.294545 5.236364l0.698182 27.461818c0.116364 3.566545-1.629091 5.352727-5.236363 5.352727l-300.974546 0.756364z" fill="#D24B36" p-id="5227"></path><path d="M410.48288 293.056l0.290909 39.330909c-2.711273 1.512727-5.410909 1.937455-8.087273 1.28-1.896727-0.465455-2.850909-1.687273-2.850909-3.665454l-0.64-32.174546c-0.034909-2.018909 0.872727-3.432727 2.734546-4.247273 2.600727-1.088 5.451636-1.262545 8.552727-0.523636zM448.591971 397.201455l-20.130909 34.152727a7.912727 7.912727 0 0 1-4.712727 3.607273l-21.294546 5.934545a7.912727 7.912727 0 0 1-10.007273-7.68l0.116364-40.785455a7.912727 7.912727 0 0 1 8.029091-7.912727l41.309091 0.756364a7.912727 7.912727 0 0 1 6.690909 11.927273z" fill="#FEFEFE" p-id="5228"></path><path d="M665.610153 385.739636c1.320727 38.551273 2.036364 76.858182 2.152727 114.909091 0.040727 26.722909 0.040727 40.279273 0 40.669091-1.704727 16.558545-8.087273 29.108364-19.141818 37.643637-29.591273 17.995636-47.860364 42.798545-54.807273 74.414545-9.925818 44.951273 0.174545 82.618182 30.312727 112.989091 17.262545 22.376727 21.742545 43.246545 13.44 62.603636-8.203636 19.083636-15.301818 37.992727-27.403636 54.050909-43.287273 57.425455-100.770909 72.785455-171.52 72.145455-67.490909-0.64-115.956364 0.349091-164.421818-9.076364-3.025455-0.622545-6.109091-2.018909-9.250909-4.189091-6.167273-4.229818-9.809455-4.538182-10.938182-0.930909-4.805818-4.852364-6.516364-8.011636-5.12-9.483636 10.472727-63.36 43.054545-110.487273 103.563636-133.003636-4.654545 12.718545-6.725818 23.057455-6.225454 31.010909 2.734545 43.578182 57.949091 48.756364 77.381818 18.792727 15.709091-24.128 11.112727-44.625455-13.789091-61.498182 4.619636-12.881455 10.845091-24.128 18.676364-33.745454 1.710545-2.135273 7.138909-5.550545 16.290909-10.24 30.877091 9.809455 48.488727-0.581818 52.829091-31.185455 5.061818-35.549091-11.403636-45.381818-34.967273-64.872727a2.56 2.56 0 0 1 0.349091-4.189091c50.152727-28.392727 64.814545-79.476364 7.156363-113.163637a4.229818 4.229818 0 0 1-2.07709-3.531636 4.090182 4.090182 0 0 1 1.902545-3.566545c30.08-19.258182 56.785455-65.861818 23.970909-96.581819a149.050182 149.050182 0 0 0-29.847273-21.643636 4.392727 4.392727 0 0 1-2.210909-4.654545c3.2-16.349091 33.454545-14.545455 44.276364-14.545455 52.596364 0.034909 105.739636 0.325818 159.418182 0.872727z" fill="#FE5A41" p-id="5229"></path><path d="M665.610153 385.739636l48.930909 0.174546a1.338182 1.338182 0 0 1 1.338182 1.338182l-0.058182 168.610909a4.392727 4.392727 0 0 1-3.781818 4.363636c-22.533818 2.909091-43.671273 9.152-63.418182 18.734546 11.054545-8.535273 17.437091-21.085091 19.141818-37.643637 0.040727-0.389818 0.040727-13.946182 0-40.669091a3691.52 3691.52 0 0 0-2.152727-114.909091z" fill="#D24B36" p-id="5230"></path><path d="M432.24288 497.041455c17.454545 3.84 16.232727 30.429091 4.945455 40.261818-11.461818 10.007273-28.218182 22.050909-43.345455 15.301818a4.625455 4.625455 0 0 1-2.734545-4.247273l0.290909-51.258182c0-2.368 1.204364-3.572364 3.607272-3.607272 12.916364-0.232727 25.332364 0.948364 37.236364 3.549091zM388.606516 613.463273a12.625455 12.625455 0 0 1 13.789091-11.403637l0.64 0.116364c23.726545 2.245818 41.489455 19.618909 39.68 38.807273l-0.116363 1.396363c-1.832727 19.176727-22.533818 32.896-46.254546 30.661819l-0.64-0.058182a12.625455 12.625455 0 0 1-11.403636-13.730909l4.305454-45.789091z" fill="#FEFEFE" p-id="5231"></path><path d="M713.784698 740.765091a4.247273 4.247273 0 0 1-4.305454 4.189091h-1.454546a64.104727 64.104727 0 0 1-44.712727-19.089455 62.347636 62.347636 0 0 1-17.949091-44.683636v-1.396364a62.341818 62.341818 0 0 1 19.339636-44.101818 64.104727 64.104727 0 0 1 45.300364-17.687273h1.454545a4.247273 4.247273 0 0 1 4.189091 4.305455l-1.861818 118.458182z" fill="#C4C4C4" p-id="5232"></path><path d="M444.810153 742.801455c-9.152 4.689455-14.580364 8.104727-16.290909 10.24-7.831273 9.617455-14.056727 20.864-18.676364 33.745454-19.549091-7.214545-38.667636-3.316364-57.367273 11.694546-60.509091 22.516364-93.090909 69.643636-103.563636 133.003636-28.567273-52.130909 9.018182-92.8 45.44-130.676364a3987.258182 3987.258182 0 0 0 61.963636-66.094545c23.272727-25.483636 67.083636-14.545455 88.494546 8.087273z" fill="#FCC3B0" p-id="5233"></path><path d="M624.126516 766.365091c26.920727 22.574545 55.272727 34.536727 85.061819 35.898182 3.339636 0.151273 4.695273 1.879273 4.072727 5.178182-10.356364 53.370182-36.788364 95.028364-79.301818 124.974545-41.716364 29.44-77.789091 33.687273-133.410909 33.338182-57.751273-0.314182-115.508364-0.448-173.265455-0.407273-28.043636 0-53.527273-1.28-73.250909-24.378182 1.128727-3.607273 4.770909-3.298909 10.938182 0.930909 3.141818 2.170182 6.225455 3.566545 9.250909 4.189091 48.465455 9.425455 96.930909 8.436364 164.421818 9.076364 70.749091 0.64 128.232727-14.72 171.52-72.145455 12.101818-16.058182 19.2-34.967273 27.403636-54.050909 8.302545-19.357091 3.822545-40.226909-13.44-62.603636z" fill="#D24B36" p-id="5234"></path><path d="M409.84288 786.786909c24.901818 16.872727 29.498182 37.370182 13.789091 61.498182-19.432727 29.963636-74.647273 24.785455-77.381818-18.792727-0.500364-7.953455 1.570909-18.292364 6.225454-31.010909 18.699636-15.010909 37.818182-18.909091 57.367273-11.694546z" fill="#312E2E" p-id="5235"></path></svg>