<?xml version="1.0" standalone="no"?><!DOCTYPE svg PUBLIC "-//W3C//DTD SVG 1.1//EN" "http://www.w3.org/Graphics/SVG/1.1/DTD/svg11.dtd"><svg t="1732689173932" class="icon" viewBox="0 0 1080 1024" version="1.1" xmlns="http://www.w3.org/2000/svg" p-id="5862" xmlns:xlink="http://www.w3.org/1999/xlink" width="210.9375" height="200"><path d="M678.177545 210.357848c7.062069 2.824828 17.139641 6.829021 30.225655 12.005518 155.859862 61.722483 239.898483 184.531862 279.163586 342.792827 0.564966 2.309297 1.977379 3.884138 4.237242 4.731586 5.3248 2.026814 10.691972 3.629903 16.101517 4.802207 39.97131 8.827586 65.041655 56.002207 70.126345 93.14869 2.966069 21.376883 2.994317 50.239559 0.07062 86.580965-3.199117 40.020745-21.440441 70.408828-54.731034 91.171311-9.131255 5.69909-16.899531 11.136883-23.304828 16.313379a11.045076 11.045076 0 0 0-3.813517 5.790897c-10.352993 37.245352-28.008166 67.965352-52.965517 92.16-72.174345 69.87211-152.018097 78.579641-239.54538 26.129655-3.813517-2.330483-11.29931-9.533793-17.725793-12.21738a6.58891 6.58891 0 0 0-6.638344 0.635587c-88.628966 59.109517-184.814345 61.016276-268.852966-3.460414a2.365793 2.365793 0 0 0-3.03669 0.141241 133.56491 133.56491 0 0 1-35.451586 24.50538c-84.271669 40.253793-159.482703 29.335834-225.633103-32.768-31.447393-29.519448-52.704221-66.242207-63.770483-110.168276a6.122814 6.122814 0 0 0-4.307862-4.660966c-37.711448-12.288-67.937103-51.623724-71.256276-91.948138-4.025379-48.375172-9.463172-105.648552 23.51669-142.936276 23.799172-26.906483 39.688828-42.372414 75.069793-38.347034a4.766897 4.766897 0 0 0 5.084689-3.531035c5.225931-19.49131 8.474483-41.94869 13.629794-58.897655 43.975503-143.11989 134.864331-242.017103 272.666482-296.677517 5.134124-2.019752 7.302179-5.762648 6.497104-11.22869-9.533793-64.264828 1.765517-137.216 57.485241-175.492413 47.668966-32.768 112.357517-35.663448 159.249655-0.847449 54.30731 40.324414 70.69131 111.298207 54.872276 176.410483-0.656772 2.824828 0.353103 4.781021 3.03669 5.861517z m-189.051586-12.641103l100.563862-1.059311a17.867034 17.867034 0 0 0 17.725793-18.008275l-0.353104-32.344276c-0.437848-41.765076-30.790621-75.302841-67.795862-74.928552h-2.259862c-17.775228 0.183614-34.745379 8.333241-47.17462 22.648055-12.415117 14.314814-19.279448 33.629572-19.067587 53.692911l0.353104 32.344275a17.867034 17.867034 0 0 0 18.008276 17.655173z m-203.670069 376.478896l539.118344-0.141241 83.261794-0.211862a5.014069 5.014069 0 0 0 4.943448-6.002759c-22.316138-107.809545-78.671448-191.191393-169.065931-250.138482-46.327172-30.225655-93.876083-48.113876-142.653793-53.671725l-11.087449 2.189242c-196.749241-33.191724-371.535448 118.148414-409.882482 304.940138a3.629903 3.629903 0 0 0 0.755641 3.086124 3.785269 3.785269 0 0 0 2.916635 1.362979l101.693793-1.412414z m584.386207 355.010207c27.309021-15.345876 46.496662-39.921876 57.555862-73.728a5.367172 5.367172 0 0 0-5.08469-7.062069l-112.569379-1.977379c-20.974345-0.776828-48.657655-13.135448-50.14069-36.934621-1.129931-18.502621 11.934897-27.68331 29.448828-27.542069 38.799007 0.423724 75.846621 0.706207 111.156965 0.847449 25.522317 1.511283 49.815834 1.723145 72.880552 0.635586 58.33269-2.683586 40.825821-99.433931 27.965793-131.566345-2.683586-6.730152-8.615724-10.190566-17.796414-10.381241-30.084414-0.656772-60.2112-0.586152-90.394483 0.211862-279.135338 1.652524-535.608497 1.299421-769.412413-1.059311-13.771034-0.141241-25.705931-0.494345-34.462897 11.511173-19.632552 26.835862-30.578759 131.425103 22.104276 130.224551 66.199834-1.504221 134.461793-2.259862 204.8-2.259862 22.415007 0 30.628193 10.804966 24.646621 32.414897l-0.706207 2.542345c-6.115752 22.08309-20.621241 33.099917-43.502345 33.050483l-134.10869-0.141242a2.28811 2.28811 0 0 0-1.836138 0.918069 2.443476 2.443476 0 0 0-0.423724 2.048c26.553379 99.151448 151.905103 135.026759 217.794207 47.810207 9.745655-12.923586 25.211586-46.892138 44.985379-19.844414 21.680552 29.73131 52.541793 60.168828 91.948138 66.948414 56.454179 9.703283 102.64011-6.920828 138.557793-49.858207a2988.173241 2988.173241 0 0 0 25.352828-30.72 2.436414 2.436414 0 0 1 3.319172-0.423724 232.624552 232.624552 0 0 1 41.94869 37.85269c12.429241 14.314814 22.718676 23.7568 30.861241 28.318896 36.115421 20.10571 74.483641 19.49131 115.111725-1.836138z" fill="#343333" p-id="5863"></path><path d="M489.125959 197.716745a17.867034 17.867034 0 0 1-18.008276-17.655173l-0.353104-32.344275c-0.211862-20.056276 6.652469-39.378097 19.067587-53.692911 12.429241-14.321876 29.399393-22.464441 47.17462-22.648055h2.259862c37.005241-0.37429 67.358014 33.163476 67.795862 74.928552l0.353104 32.344276a17.867034 17.867034 0 0 1-17.725793 18.008275l-100.563862 1.059311z" fill="#FEFEFE" p-id="5864"></path><path d="M589.972303 266.218814c2.683586 2.591779 4.166621 4.922262 4.449104 6.991448a3.848828 3.848828 0 0 1-3.177931 4.237241c-159.320276 25.352828-272.948966 140.535172-305.787586 296.748138l-101.693793 1.412414a3.785269 3.785269 0 0 1-2.916635-1.362979 3.629903 3.629903 0 0 1-0.755641-3.086124c38.347034-186.791724 213.133241-338.131862 409.882482-304.940138z" fill="#E4D1A8" p-id="5865"></path><path d="M589.972303 266.218814l11.087449-2.189242c0.190676 4.194869 1.200552 7.676469 3.036689 10.451862 1.271172 1.935007 2.944883 3.418041 5.014069 4.449104 93.854897 46.539034 170.619586 144.984276 200.915862 245.195034 4.943448 16.433434 9.79509 33.078731 14.547862 49.928828l-539.118344 0.141241c32.838621-156.212966 146.46731-271.39531 305.787586-296.748138a3.848828 3.848828 0 0 0 3.177931-4.237241c-0.282483-2.069186-1.765517-4.399669-4.449104-6.991448z" fill="#CA9F54" p-id="5866"></path><path d="M601.059752 264.029572c48.77771 5.557848 96.326621 23.446069 142.653793 53.671725 90.394483 58.94709 146.749793 142.328938 169.065931 250.138482a5.014069 5.014069 0 0 1-4.943448 6.002759l-83.261794 0.211862a3011.661683 3011.661683 0 0 0-14.547862-49.928828c-30.296276-100.210759-107.060966-198.656-200.915862-245.195034a12.704662 12.704662 0 0 1-5.014069-4.449104c-1.836138-2.775393-2.846014-6.256993-3.036689-10.451862z" fill="#AC884A" p-id="5867"></path><path d="M892.864441 641.709021l8.333242 2.189241c3.389793 0.896883 3.933572 2.6624 1.624276 5.296552l-1.483035 1.836138a8.086069 8.086069 0 0 0-2.118621 5.720276l0.98869 126.057931c-35.310345-0.141241-72.357959-0.423724-111.156965-0.847449-17.513931-0.141241-30.578759 9.039448-29.448828 27.542069 1.483034 23.799172 29.166345 36.157793 50.14069 36.934621 24.293517 25.140966 44.328607 52.732469 60.098207 82.767448-40.628083 21.327448-78.996303 21.941848-115.111725 1.836138-8.142566-4.562097-18.432-14.004083-30.861241-28.318896a232.624552 232.624552 0 0 0-41.94869-37.85269 2.436414 2.436414 0 0 0-3.319172 0.423724 2988.173241 2988.173241 0 0 1-25.352828 30.72c-35.917683 42.937379-82.103614 59.56149-138.557793 49.858207-39.406345-6.779586-70.267586-37.217103-91.948138-66.948414-19.773793-27.047724-35.239724 6.920828-44.985379 19.844414-65.889103 87.216552-191.240828 51.341241-217.794207-47.810207a2.443476 2.443476 0 0 1 0.423724-2.048 2.28811 2.28811 0 0 1 1.836138-0.918069l134.10869 0.141242c22.881103 0.049434 37.386593-10.967393 43.502345-33.050483l0.706207-2.542345c5.981572-21.609931-2.231614-32.414897-24.646621-32.414897-70.338207 0-138.600166 0.755641-204.8 2.259862-52.683034 1.200552-41.736828-103.38869-22.104276-130.224551 8.756966-12.005517 20.691862-11.652414 34.462897-11.511173 233.803917 2.358731 490.277076 2.711834 769.412413 1.059311z m-425.701517 159.955862c-12.288 54.660414 94.137379 47.739586 120.620138 45.056 21.892414-2.189241 47.739586-17.725793 45.338483-42.513655-4.096-42.301793-100.069517-32.838621-128.317793-30.084414-21.46869 2.168055-34.010924 11.348745-37.640828 27.542069z" fill="#FEFEFE" p-id="5868"></path><path d="M892.864441 641.709021c30.183283-0.798014 60.310069-0.868634 90.394483-0.211862 9.18069 0.190676 15.112828 3.65109 17.796414 10.381241 12.852966 32.132414 30.366897 128.882759-27.965793 131.566345-23.064717 1.087559-47.358234 0.875697-72.880552-0.635586l-0.98869-126.057931a8.086069 8.086069 0 0 1 2.118621-5.720276l1.483035-1.836138c2.309297-2.634152 1.765517-4.399669-1.624276-5.296552l-8.333242-2.189241z" fill="#CBCCCE" p-id="5869"></path><path d="M467.162924 801.664883c3.629903-16.193324 16.172138-25.374014 37.640828-27.542069 28.248276-2.754207 124.221793-12.217379 128.317793 30.084414 2.401103 24.787862-23.446069 40.324414-45.338483 42.513655-26.482759 2.683586-132.908138 9.604414-120.620138-45.056z" fill="#343333" p-id="5870"></path><path d="M809.74389 846.4384l112.569379 1.977379a5.367172 5.367172 0 0 1 5.08469 7.062069c-11.0592 33.806124-30.246841 58.382124-57.555862 73.728-15.7696-30.034979-35.80469-57.626483-60.098207-82.767448z" fill="#CBCCCE" p-id="5871"></path></svg>